<svg xmlns="http://www.w3.org/2000/svg" viewBox="0 0 226.69 139.46"><defs><style>.cls-1{fill:#383838;}</style></defs><title>flecha-abajo</title><g id="Capa_2" data-name="Capa 2"><g id="Capa_1-2" data-name="Capa 1"><path class="cls-1" d="M113,86.83c.49-.36.72-.49.9-.66.35-.32.68-.66,1-1Q157,43.08,199.09,1c1.3-1.3,1.88-1.16,3.07.06Q214,13,226,24.91c1,1,.94,1.51,0,2.48Q170.23,83,114.59,138.72c-1,1-1.53,1-2.51,0Q56.44,83,.74,27.37c-1-1-1-1.48,0-2.48q12-12,23.93-24c1.11-1.13,1.66-1.13,2.78,0Q69.58,43.05,111.76,85.2A16.73,16.73,0,0,1,113,86.83Z"/></g></g></svg>