<svg xmlns="http://www.w3.org/2000/svg" viewBox="0 0 294.29 294.15"><defs><style>.cls-1{fill:#1f55c0;}</style></defs><title>Información especial Base</title><g id="Capa_2" data-name="Capa 2"><g id="Capa_1-2" data-name="Capa 1"><path class="cls-1" d="M209.25,73.69H85.7c-5.94,0-7,1.06-7,6.91V152q0,36.28,0,72.57c0,4.53,1.42,5.92,5.87,5.92H209.6c4.7,0,6.27-1.5,6.28-6.27q0-72,0-143.94C215.87,75.09,214.37,73.69,209.25,73.69ZM88.33,86c0-2.09.52-2.7,2.64-2.7q56.21.09,112.42,0c2,0,2.78.48,2.76,2.65-.1,11.19-.12,22.38,0,33.57,0,2.54-.94,2.92-3.17,2.91-18.69-.08-37.37,0-56.06,0-18.49,0-37-.06-55.46.06-2.54,0-3.18-.72-3.15-3.19Q88.5,102.67,88.33,86Zm0,49.39c0-2.47.8-2.93,3.06-2.92,18.6.09,37.2.05,55.8.05s37.2,0,55.8-.06c2.54,0,3.2.74,3.17,3.2-.12,10.9-.1,21.8,0,32.7,0,2.37-.48,3.26-3.13,3.26q-55.8-.15-111.59,0c-2.25,0-3.14-.4-3.11-2.92Q88.52,152.07,88.32,135.42Zm114.39,85.24q-55.5-.09-111,0c-2.51,0-3.46-.56-3.41-3.31.16-11,.14-22,0-33,0-2.53.73-3.18,3.2-3.16,18.6.09,37.2.05,55.79.05s37,.05,55.5-.06c2.71,0,3.37.85,3.34,3.41q-.18,16.35,0,32.7C206.19,220,205.27,220.67,202.71,220.66Z"/><path class="cls-1" d="M165.76,9.9c38.4-.11,76.8,0,115.2-.14,3,0,3.67.86,3.6,3.69q-.29,11.25,0,22.5c.07,2.73-.81,3.26-3.38,3.26q-49.35-.14-98.7-.06c-6,0-6,0-6,6,0,3.9,0,3.9,3.92,3.9,33.6,0,67.2,0,100.8-.06,2.69,0,3.31.71,3.3,3.33-.1,26-.06,52-.06,78,0,7,0,6.93,7,7.06,2.35,0,2.76-.7,2.76-2.87-.09-21.5-.05-43-.05-64.5q0-31.8,0-63.6c0-5-1.44-6.36-6.43-6.36H168.06c-6.07,0-5.85,0-6.17,5.92C161.71,9.2,162.66,9.91,165.76,9.9Z"/><path class="cls-1" d="M6.62,137.41c2.89.11,3.47-.85,3.46-3.54-.09-27.19,0-54.39-.12-81.59,0-2.68.65-3.27,3.29-3.26,32.7.1,65.39.06,98.09.06,6.51,0,6.35,0,6.57-6.38.1-3-.8-3.63-3.67-3.62-33.69.1-67.39,0-101.09.12-2.39,0-3.25-.47-3.19-3.06.18-7.7.2-15.4,0-23.1-.07-2.69.7-3.28,3.32-3.28q56.25.15,112.49.07c6.64,0,6.53,0,6.7-6.69C132.53.75,132,0,129.45,0Q68.12.14,6.77.07C1.51.07.2,1.37.2,6.58V131.06C.2,137.34.21,137.18,6.62,137.41Z"/><path class="cls-1" d="M129.22,284.28c-38.69.11-77.39,0-116.09.14-2.71,0-3.26-.73-3.26-3.33q.15-53.7.07-107.39c0-7,0-6.95-7.21-7-2.19,0-2.58.67-2.58,2.7Q.24,228.63.2,287.87c0,4.74,1.52,6.22,6.3,6.22H126.19c6.31,0,6.18,0,6.38-6.37C132.66,285.06,132,284.28,129.22,284.28Z"/><path class="cls-1" d="M287.52,166.68c-2.52-.07-3.1.61-3.09,3.1.08,37,0,74,.12,111,0,2.8-.57,3.67-3.53,3.66q-56.25-.15-112.48-.07c-6.63,0-6.44,0-6.71,6.63-.12,2.87.91,3.17,3.36,3.16,20.4-.09,40.79-.05,61.19-.05h60c6.81,0,7.85-1,7.85-7.71V173.3C294.22,166.73,294.22,166.85,287.52,166.68Z"/><path class="cls-1" d="M2.78,156.83c13.79-.1,27.58-.06,41.37,0,.82,0,1.76-.42,2.55.42l-.79.93c-1.53,1.8-4.75,3.31-4.45,5.21s3.21,3.58,4.84,5.46c1.05,1.2,1.71,1.14,2.81,0,4.24-4.38,8.63-8.61,12.89-13,2.54-2.6,2.58-5,.08-7.61-4.32-4.43-8.76-8.75-13.1-13.17-.86-.88-1.38-1.1-2.34-.12-1.88,1.92-3.91,3.7-6,5.62l6.85,6.51H43.7c-12.09,0-24.18,0-36.27,0-2.35,0-5.48-1.07-6.85.5-1.15,1.32-.19,4.38-.42,6.64S.72,156.84,2.78,156.83Z"/><path class="cls-1" d="M291,147c-14.36.17-28.74.08-44,.08,2.49-2.39,5.57-4,5.9-6,.38-2.37-3.21-3.76-4.81-5.81-.06-.08-.15-.14-.21-.22-.77-1-1.4-1-2.33,0-4.32,4.43-8.77,8.75-13.1,13.18-2.61,2.67-2.53,5.06.16,7.81,2.94,3,5.92,6,8.9,8.9,1.7,1.68,3.39,4.58,5.18,4.65,2.12.1,3.49-3.19,5.44-4.71,1.6-1.24,1.23-2.12-.1-3.23-1.57-1.32-3-2.77-4.52-4.17l.46-.67h40c6.28,0,6.15,0,6.33-6.34C294.36,147.83,293.81,147,291,147Z"/><path class="cls-1" d="M130.26,41.41c-1.18,1.05-.86,1.66.1,2.6,4.36,4.26,8.61,8.64,13,12.89,2.74,2.68,5,2.65,7.8,0,3-2.92,6-5.92,8.92-8.89,5.53-5.53,5.53-5.53-.2-10.84a1.39,1.39,0,0,1-.21-.21c-.81-1.11-1.5-.9-2.36,0-1.52,1.66-3.16,3.21-5.22,5.27V7.16c0-7.19,0-7.11-7.31-7.15-2,0-2.47.51-2.46,2.47.1,12.09,0,24.18,0,36.28V42L141.06,41c-1.89-1.53-3.24-4.89-5.4-4.51S132.12,39.75,130.26,41.41Z"/><path class="cls-1" d="M164.05,262.58c1-.91,1.21-1.49.1-2.56-4.45-4.32-8.76-8.78-13.19-13.11-2.62-2.55-4.89-2.53-7.55,0-3.1,3-6.1,6.07-9.14,9.11-5.49,5.49-5.46,5.46.35,10.83,1,1,1.65,1.08,2.61,0,1.45-1.69,3.05-3.25,5.12-5.42v25.84c0,6.86,0,6.77,7,6.89,2.19,0,2.84-.44,2.8-2.74-.15-9.67-.06-19.34-.06-29.53l1.17.93c1.87,1.57,3.29,4.9,5.38,4.62S162.2,264.24,164.05,262.58Z"/><path class="cls-1" d="M257.1,29.49c2.59-.09,5.19,0,7.78,0h2.39c7.56,0,7.49,0,7.35-7.69,0-1.77-.62-2.15-2.23-2.09-3.29.1-6.58,0-9.87,0-7.77,0-7.7,0-7.5,7.87C255.07,29.27,255.66,29.54,257.1,29.49Z"/><path class="cls-1" d="M39.35,24.34c0,5.13,0,5.13,5.14,5.13,4.77,0,4.77,0,4.77-4.91s0-4.85-4.85-4.85C39.35,19.71,39.35,19.71,39.35,24.34Z"/><path class="cls-1" d="M19.85,24.64c0,4.83,0,4.83,4.77,4.83,5,0,5,0,5-4.9s0-4.85-4.74-4.85C19.85,19.72,19.85,19.72,19.85,24.64Z"/><path class="cls-1" d="M59,24.73c0,4.74,0,4.74,4.85,4.74s4.9,0,4.9-5v-.3c0-4.46,0-4.46-4.56-4.46C59,19.72,59,19.72,59,24.73Z"/><path class="cls-1" d="M169.59,196.1c-6.58.09-13.17,0-19.75,0-7.77,0-7.72,0-7.54,7.83,0,1.6.5,2,2,2,4.19-.1,8.38,0,12.57,0h7.49c7.6,0,7.53,0,7.41-7.65C171.77,196.49,171.26,196.07,169.59,196.1Z"/><path class="cls-1" d="M108,196.13c-4.93,0-4.93,0-4.93,5,0,4.72,0,4.72,4.65,4.72,5.2,0,5.2,0,5.2-4.73C113,196.13,113,196.13,108,196.13Z"/><path class="cls-1" d="M127.36,196.13c-4.69,0-4.69,0-4.69,4.66,0,5.1,0,5.1,5.13,5.1,4.72,0,4.72,0,4.72-4.64C132.52,196.13,132.52,196.13,127.36,196.13Z"/><path class="cls-1" d="M186.43,196.13c-5,0-5,0-5,5,0,4.77,0,4.77,4.87,4.77s5,0,5-5C191.32,196.13,191.32,196.13,186.43,196.13Z"/><path class="cls-1" d="M100.9,161.82c2.26-.23,5.29.69,6.63-.46,1.59-1.37.34-4.49.52-6.83.06-.8,0-1.6,0-2.4v-2.39c0-7.81,0-7.75-7.82-7.57-1.77,0-2.15.62-2.12,2.24.09,4.88.17,9.78,0,14.66C98,161.36,98.67,162.05,100.9,161.82Z"/><path class="cls-1" d="M117.82,149.17c-.06.9,0,1.8,0,2.7v2.39c0,7.92,0,7.89,7.83,7.55,1.32-.06,2-.24,2-1.79-.08-5.39,0-10.79,0-16.18,0-.78.17-1.66-1.11-1.63-2.78.08-6-.67-8.19.46C116.83,143.39,118,146.91,117.82,149.17Z"/><path class="cls-1" d="M137.44,160c0,1.24.31,1.69,1.65,1.79,8.12.63,8.12.67,8.12-7.27v-4.8c0-8.06,0-8-8.06-7.57-1.25.07-1.73.33-1.72,1.68C137.5,149.25,137.49,154.64,137.44,160Z"/><path class="cls-1" d="M191.64,156.83c4.63,0,4.63,0,4.63-4.76,0-5,0-5-5-5s-4.93,0-4.93,4.44C186.36,156.83,186.36,156.83,191.64,156.83Z"/><path class="cls-1" d="M171.85,156.83c4.76,0,4.76,0,4.76-4.84s0-4.91-5-4.91c-4.79,0-4.79,0-4.79,4.81S166.86,156.83,171.85,156.83Z"/><path class="cls-1" d="M98.15,106c0,6.88,0,6.8,7,6.91,2.21,0,3.27-.35,3-2.86a65.75,65.75,0,0,1,0-6.88v-2.39c0-8,0-7.92-8-7.66-1.67.06-2,.64-1.92,2.11C98.21,98.78,98.15,102.37,98.15,106Z"/><path class="cls-1" d="M117.81,105.3c0,7.84,0,7.84,7.79,7.51a1.51,1.51,0,0,1,.3,0c1.32.18,1.71-.43,1.68-1.7-.07-2.69,0-5.38,0-8.08v-2.39c0-7.82,0-7.82-7.81-7.52a.94.94,0,0,1-.29,0c-1.35-.2-1.7.43-1.67,1.7C117.85,98.32,117.81,101.81,117.81,105.3Z"/><path class="cls-1" d="M137.46,105.37c0,7.63,0,7.58,7.58,7.48,1.62,0,2.32-.33,2.21-2.1-.15-2.49,0-5,0-7.48v-2.69c0-7.83,0-7.77-7.86-7.5-1.69.06-1.95.68-1.91,2.12C137.52,98.59,137.46,102,137.46,105.37Z"/><path class="cls-1" d="M191.14,107.93c5.13,0,5.13,0,5.13-5.08,0-4.83,0-4.83-4.78-4.83-5.13,0-5.13,0-5.13,5.08C186.36,107.93,186.36,107.93,191.14,107.93Z"/><path class="cls-1" d="M171.52,107.93c5.1,0,5.1,0,5.1-5.18,0-4.73,0-4.73-4.64-4.73-5.12,0-5.12,0-5.12,5.17C166.86,107.93,166.86,107.93,171.52,107.93Z"/></g></g></svg>