<svg id="Capa_1" data-name="Capa 1" xmlns="http://www.w3.org/2000/svg" viewBox="0 0 17 14"><defs><style>.cls-1{fill:#fff;}</style></defs><title>men-user</title><path class="cls-1" d="M8.5,0a7,7,0,1,1-7,7A7,7,0,0,1,8.5,0ZM3.61,10.68A5.41,5.41,0,0,1,6.75,7.79a2.91,2.91,0,0,1-.22-4.42,2.88,2.88,0,0,1,4,0,2.92,2.92,0,0,1-.24,4.4,5.45,5.45,0,0,1,3.15,2.88,6.06,6.06,0,0,0-.69-8.14,6.13,6.13,0,0,0-9.1,8.15Zm9.12.74a4.45,4.45,0,0,0-8.46,0A6.07,6.07,0,0,0,12.73,11.42ZM10.5,5.47a2,2,0,0,0-2-2,2,2,0,0,0,0,4.06A2,2,0,0,0,10.5,5.47Z"/></svg>