<svg id="Capa_1" data-name="Capa 1" xmlns="http://www.w3.org/2000/svg" viewBox="0 0 17 14"><defs><style>.cls-1{fill:gray;}</style></defs><title>men-documento</title><path class="cls-1" d="M12.2,0H4.8A1.54,1.54,0,0,0,3.25,1.54V12.46A1.54,1.54,0,0,0,4.8,14h7.4a1.54,1.54,0,0,0,1.55-1.54V1.54A1.54,1.54,0,0,0,12.2,0Zm.93,12.46a.93.93,0,0,1-.93.92H4.8a.93.93,0,0,1-.93-.92V1.54A.93.93,0,0,1,4.8.62h7.4a.93.93,0,0,1,.93.92Z"/><path class="cls-1" d="M8.49,7.43a1.6,1.6,0,0,0,0-3.19,1.6,1.6,0,1,0,0,3.19Zm0-2.57a1,1,0,1,1-1,1A1,1,0,0,1,8.49,4.86Z"/><path class="cls-1" d="M8.49,8a2.43,2.43,0,0,0-1.73.72A2.56,2.56,0,0,0,6,10.56a.3.3,0,0,0,.31.3h4.28a.3.3,0,0,0,.31-.3,2.56,2.56,0,0,0-.72-1.82A2.43,2.43,0,0,0,8.49,8ZM6.68,10.25A1.81,1.81,0,0,1,7.2,9.18a1.81,1.81,0,0,1,2.58,0,1.87,1.87,0,0,1,.52,1.07Z"/><path class="cls-1" d="M7.2,2.07H9.66A.31.31,0,0,0,10,1.82a.31.31,0,0,0-.31-.36H7.21a.31.31,0,1,0,0,.61Z"/></svg>