<svg id="Capa_1" data-name="Capa 1" xmlns="http://www.w3.org/2000/svg" viewBox="0 0 17 14"><defs><style>.cls-1{fill:#36c;}</style></defs><title>men-cargar</title><path class="cls-1" d="M7.58,13V8.73H6.14L8.5,5.89l2.36,2.84H9.42V13Zm3.22-1.61v-.77h3.07A2.3,2.3,0,0,0,14,6.05a2.56,2.56,0,0,0-4-1.72A3.91,3.91,0,0,0,2.44,5.66a3.87,3.87,0,0,0,0,.48,2.3,2.3,0,0,0,.66,4.5H6.2v.77H3.13A3.07,3.07,0,0,1,1.6,5.68l.07,0V5.56A4.68,4.68,0,0,1,10.33,3.2l.06.1.11,0a3.41,3.41,0,0,1,.95-.14,3.36,3.36,0,0,1,3.13,2.17l0,.07.07,0a3.07,3.07,0,0,1-.81,6Z"/></svg>