<svg id="Capa_1" data-name="Capa 1" xmlns="http://www.w3.org/2000/svg" viewBox="0 0 17 14"><defs><style>.cls-1{fill:#fff;}</style></defs><title>men-solicitudes</title><path class="cls-1" d="M16,5.91a.31.31,0,0,0-.29-.18h-.94A7,7,0,1,0,14,10.5a.64.64,0,0,0-1.1-.64,5.73,5.73,0,1,1,.62-4.13h-.94a.33.33,0,0,0-.29.18.33.33,0,0,0,.05.34l1.59,1.91a.32.32,0,0,0,.24.11.33.33,0,0,0,.25-.11L16,6.25a.32.32,0,0,0,0-.34Zm0,0"/><path class="cls-1" d="M7.93,1.59a.64.64,0,0,0-.64.64V6.09A1.09,1.09,0,0,0,6.82,7,1.11,1.11,0,0,0,7.93,8.11,1.24,1.24,0,0,0,8.4,8l2.21,1.27a.63.63,0,0,0,.87-.23.64.64,0,0,0-.23-.87L9,6.9a1.09,1.09,0,0,0-.47-.81V2.23a.64.64,0,0,0-.63-.64Zm0,5.89a.48.48,0,0,1,0-1,.48.48,0,0,1,0,1Zm0,0"/></svg>