<svg id="Capa_1" data-name="Capa 1" xmlns="http://www.w3.org/2000/svg" viewBox="0 0 17 14"><defs><style>.cls-1{fill:#36c;}</style></defs><title>men-informacion</title><path class="cls-1" d="M11.18,1.75H9.7V1.68A.79.79,0,0,0,8.91.89H8.4A1.48,1.48,0,0,0,7.05,0H7A1.48,1.48,0,0,0,5.64.89h-.5a.79.79,0,0,0-.8.79v.07H2.87C2,1.75,1.5,2.16,1.5,2.84v9.79A1.37,1.37,0,0,0,2.87,14h8.31a1.37,1.37,0,0,0,1.37-1.37V6.44a.28.28,0,0,0-.28-.27.27.27,0,0,0-.27.27v6.19a.82.82,0,0,1-.82.82H2.87a.81.81,0,0,1-.82-.82V2.84c0-.13,0-.54.82-.54H4.34v.38A.28.28,0,0,0,4.62,3H9.43a.27.27,0,0,0,.27-.27V2.3h1.48a.82.82,0,0,1,.82.82V4a.27.27,0,0,0,.27.27A.28.28,0,0,0,12.55,4V3.12A1.37,1.37,0,0,0,11.18,1.75Zm-2,.66H4.89V1.68a.25.25,0,0,1,.25-.25h.7a.27.27,0,0,0,.26-.2A.93.93,0,0,1,7,.55h0a.93.93,0,0,1,.9.68.27.27,0,0,0,.26.2h.7a.25.25,0,0,1,.25.25Z"/><path class="cls-1" d="M12.27,4.91a.27.27,0,0,0-.27.27.32.32,0,0,0,.08.2.27.27,0,0,0,.19.08.28.28,0,0,0,.2-.08.32.32,0,0,0,.08-.2A.27.27,0,0,0,12.47,5,.28.28,0,0,0,12.27,4.91Z"/><path class="cls-1" d="M15.23,8.8a.28.28,0,0,0-.2.08.32.32,0,0,0-.08.2.27.27,0,0,0,.08.19.28.28,0,0,0,.2.08.27.27,0,0,0,.27-.27.32.32,0,0,0-.08-.2A.27.27,0,0,0,15.23,8.8Z"/><path class="cls-1" d="M15.48,5.07l-.88-2A.28.28,0,0,0,14.35,3a.29.29,0,0,0-.25.16l-.87,2a.23.23,0,0,0,0,.11v8.17a.66.66,0,0,0,.66.65h1a.65.65,0,0,0,.65-.65V10.27a.27.27,0,0,0-.27-.27.28.28,0,0,0-.28.27v1.91h-1.2V5.46H15V8a.28.28,0,0,0,.28.27A.27.27,0,0,0,15.5,8V5.18A.43.43,0,0,0,15.48,5.07ZM14.35,3.9l.45,1h-.9Zm.6,8.83v.62a.09.09,0,0,1-.1.1h-1a.1.1,0,0,1-.11-.1v-.62Z"/><path class="cls-1" d="M4.72,3.94A1.15,1.15,0,1,0,5.87,5.09,1.14,1.14,0,0,0,4.72,3.94Zm0,1.75a.61.61,0,1,1,.6-.6A.6.6,0,0,1,4.72,5.69Z"/><path class="cls-1" d="M4.72,7.22a1.15,1.15,0,0,0,0,2.3,1.15,1.15,0,1,0,0-2.3ZM4.72,9a.6.6,0,1,1,.6-.6A.6.6,0,0,1,4.72,9Z"/><path class="cls-1" d="M4.72,10.5a1.15,1.15,0,1,0,1.15,1.15A1.15,1.15,0,0,0,4.72,10.5Zm0,1.75a.6.6,0,1,1,.6-.6A.6.6,0,0,1,4.72,12.25Z"/><path class="cls-1" d="M10.2,5.69H7.07a.27.27,0,0,0,0,.54H10.2a.27.27,0,1,0,0-.54Z"/><path class="cls-1" d="M10.2,4.38H7.07a.27.27,0,1,0,0,.54H10.2a.27.27,0,1,0,0-.54Z"/><path class="cls-1" d="M10.2,9H7.07a.27.27,0,0,0-.27.27.28.28,0,0,0,.27.28H10.2a.28.28,0,0,0,.28-.28A.27.27,0,0,0,10.2,9Z"/><path class="cls-1" d="M10.2,7.66H7.07a.27.27,0,1,0,0,.54H10.2a.27.27,0,1,0,0-.54Z"/><path class="cls-1" d="M10.2,12.25H7.07a.27.27,0,0,0-.27.27.28.28,0,0,0,.27.28H10.2a.28.28,0,0,0,.28-.28A.27.27,0,0,0,10.2,12.25Z"/><path class="cls-1" d="M10.2,10.94H7.07a.27.27,0,0,0,0,.54H10.2a.27.27,0,1,0,0-.54Z"/></svg>