<svg id="Capa_1" data-name="Capa 1" xmlns="http://www.w3.org/2000/svg" viewBox="0 0 17 14"><defs><style>.cls-1{fill:#36c;}</style></defs><title>men-instituciones</title><path class="cls-1" d="M16,6.5H12.55V5.85a.24.24,0,0,0-.14-.23L8.77,3.57v-1h.72v.4a.26.26,0,0,0,.26.26h2.18a.26.26,0,0,0,.27-.26.29.29,0,0,0,0-.09L12,2.21l.22-.61A.26.26,0,0,0,12,1.26l-.09,0h-1V.86a.27.27,0,0,0-.26-.27H8.77V.27a.27.27,0,1,0-.54,0v3.3l-3.64,2a.27.27,0,0,0-.14.23V6.5H1a.27.27,0,0,0-.26.27v7A.27.27,0,0,0,1,14H16a.27.27,0,0,0,.26-.27v-7A.27.27,0,0,0,16,6.5Zm-5-4.26V1.79h.61l-.11.34a.28.28,0,0,0,0,.18l.12.34H10V2.52h.66a.26.26,0,0,0,.26-.26ZM8.77,1.12h1.64V2H8.77ZM4.45,13.47H1.31V7H4.45Zm3.78,0H6.84v-3H8.23Zm1.93,0H8.77v-3h1.39ZM12,6.77v6.7H10.7V10.16a.27.27,0,0,0-.27-.27H6.57a.27.27,0,0,0-.27.27v3.31H5V6L8.5,4,12,6Zm3.66,6.7H12.55V7h3.14Z"/><path class="cls-1" d="M7.38,6A1.12,1.12,0,1,0,8.5,4.84,1.12,1.12,0,0,0,7.38,6ZM9.09,6a.6.6,0,0,1-.59.58.59.59,0,0,1,0-1.17A.59.59,0,0,1,9.08,6Z"/><path class="cls-1" d="M2,7.62h.54V8.69H2Z"/><path class="cls-1" d="M3.27,7.62H3.8V8.69H3.27Z"/><path class="cls-1" d="M5.78,7.62H6.85v.54H5.78Z"/><path class="cls-1" d="M8,7.62H9v.54H8Z"/><path class="cls-1" d="M10.15,7.62h1.07v.54H10.15Z"/><path class="cls-1" d="M5.78,8.86H6.85V9.4H5.78Z"/><path class="cls-1" d="M8,8.86H9V9.4H8Z"/><path class="cls-1" d="M10.15,8.86h1.07V9.4H10.15Z"/><path class="cls-1" d="M2,9.72h.54v1.06H2Z"/><path class="cls-1" d="M3.27,9.72H3.8v1.06H3.27Z"/><path class="cls-1" d="M2,11.82h.54v1.06H2Z"/><path class="cls-1" d="M3.27,11.82H3.8v1.06H3.27Z"/><path class="cls-1" d="M13.2,7.62h.53V8.69H13.2Z"/><path class="cls-1" d="M14.51,7.62h.54V8.69h-.54Z"/><path class="cls-1" d="M13.2,9.72h.53v1.06H13.2Z"/><path class="cls-1" d="M14.51,9.72h.54v1.06h-.54Z"/><path class="cls-1" d="M13.2,11.82h.53v1.06H13.2Z"/><path class="cls-1" d="M14.51,11.82h.54v1.06h-.54Z"/></svg>