<?xml version="1.0" encoding="utf-8"?>
<!-- Generator: Adobe Illustrator 22.1.0, SVG Export Plug-In . SVG Version: 6.00 Build 0)  -->
<svg version="1.1" id="Capa_1" xmlns="http://www.w3.org/2000/svg" xmlns:xlink="http://www.w3.org/1999/xlink" x="0px" y="0px"
	 viewBox="0 0 17 14" style="enable-background:new 0 0 17 14;" xml:space="preserve">
<style type="text/css">
	.st0{fill:#3366CC;}
</style>
<title>men-declaracion-manifiesto</title>
<g>
	<path class="st0" d="M8.5,2.6C8,2.6,7.6,3,7.6,3.5S8,4.4,8.5,4.4S9.4,4,9.4,3.5S9,2.6,8.5,2.6z M8.5,4C8.2,4,8,3.8,8,3.5
		S8.2,3,8.5,3S9,3.2,9,3.5S8.8,4,8.5,4z"/>
	<path class="st0" d="M14.6,5.8V5.1h0.7c0.1,0,0.2-0.1,0.2-0.2V3.5c0-0.1-0.1-0.2-0.2-0.2L12,2.6V2.1h1.2c0.1,0,0.2-0.1,0.2-0.1
		c0-0.1,0-0.2-0.1-0.3L13,1.4l0.3-0.3c0.1-0.1,0.1-0.2,0-0.3c0-0.1-0.1-0.1-0.2-0.1h-1.4c-0.1,0-0.2,0.1-0.2,0.2v1.6L8.7,1.9V1.4
		h1.2c0.1,0,0.2-0.1,0.2-0.1c0-0.1,0-0.2-0.1-0.3L9.8,0.7l0.3-0.3c0.1-0.1,0.1-0.2,0-0.3C10.1,0,10,0,9.9,0H8.5
		C8.4,0,8.3,0.1,8.3,0.2v1.7L4.1,2.8V2.1h1.2c0.1,0,0.2-0.1,0.2-0.1c0-0.1,0-0.2-0.1-0.3L5.1,1.4l0.3-0.3c0.1-0.1,0.1-0.2,0-0.3
		c0-0.1-0.1-0.1-0.2-0.1H3.8c-0.1,0-0.2,0.1-0.2,0.2v1.9L1.7,3.3c-0.1,0-0.2,0.1-0.2,0.2v1.4c0,0.1,0.1,0.2,0.2,0.2h0.7v0.7
		c0,0.1,0.1,0.2,0.2,0.2v4.2c-0.1,0-0.2,0.1-0.2,0.2v0.7H2.2c-0.1,0-0.2,0.1-0.2,0.2v0.7H1.7c-0.1,0-0.2,0.1-0.2,0.2v1.4
		c0,0.1,0.1,0.2,0.2,0.2h13.5c0.1,0,0.2-0.1,0.2-0.2v-1.4c0-0.1-0.1-0.2-0.2-0.2H15v-0.7c0-0.1-0.1-0.2-0.2-0.2h-0.2v-0.7
		c0-0.1-0.1-0.2-0.2-0.2V6.1C14.5,6.1,14.6,6,14.6,5.8z M12,1.2h0.6l-0.1,0.1c0,0-0.1,0.1-0.1,0.2c0,0.1,0,0.1,0.1,0.2l0,0H12V1.2z
		 M4.1,1.2h0.6L4.6,1.3c0,0-0.1,0.1-0.1,0.2c0,0.1,0,0.1,0.1,0.2l0,0H4.1V1.2z M14.1,5.6h-1.4V5.1h1.4V5.6z M12.5,10.3
		c-0.1,0-0.2,0.1-0.2,0.2v0.7h-1.2V6.1c0.1,0,0.2-0.1,0.2-0.2V5.1h0.9v0.7c0,0.1,0.1,0.2,0.2,0.2V10.3z M6.8,12.1L7,11.7h3l0.2,0.5
		H6.8z M10.4,12.6l0.4,0.9H6.3l0.4-0.9H10.4z M4.5,10.3V6.1c0.1,0,0.2-0.1,0.2-0.2V5.1h0.9v0.7c0,0.1,0.1,0.2,0.2,0.2v5.1H4.8v-0.7
		C4.8,10.4,4.7,10.3,4.5,10.3z M10.8,5.6H9.4V5.1h1.4V5.6z M9.2,6.1v5.1H7.8V6.1C7.9,6.1,8,6,8,5.8V5.1H9v0.7C9,6,9.1,6.1,9.2,6.1z
		 M7.6,5.6H6.2V5.1h1.4V5.6z M6.4,6.1h0.9v5.1H6.4V6.1z M9.7,11.2V6.1h0.9v5.1H9.7z M8.7,0.5h0.6L9.3,0.6c0,0-0.1,0.1-0.1,0.2
		c0,0.1,0,0.1,0.1,0.2l0,0H8.7V0.5z M2,3.7l6.5-1.4L15,3.7v1H2V3.7z M4.3,5.1v0.5H2.9V5.1H4.3z M3.1,6.1h0.9v4.2H3.1V6.1z M2.9,10.7
		h1.4v0.5H2.9V10.7z M2.4,11.7h4.1l-0.2,0.5H2.4V11.7z M2,12.6h4.2l-0.4,0.9H2V12.6z M15,13.5h-3.8l-0.4-0.9H15V13.5z M10.7,12.1
		l-0.2-0.5h4.1v0.5H10.7z M12.7,11.2v-0.5h1.4v0.5H12.7z M13.9,10.3h-0.9V6.1h0.9V10.3z"/>
</g>
</svg>
