<?xml version="1.0" encoding="utf-8"?>
<!-- Generator: Adobe Illustrator 22.1.0, SVG Export Plug-In . SVG Version: 6.00 Build 0)  -->
<svg version="1.1" id="Capa_1" xmlns="http://www.w3.org/2000/svg" xmlns:xlink="http://www.w3.org/1999/xlink" x="0px" y="0px"
	 viewBox="0 0 17 14" style="enable-background:new 0 0 17 14;" xml:space="preserve">
<style type="text/css">
	.st0{fill:#3366CC;}
</style>
<title>men-declaracion-manifiesto</title>
<g>
	<path class="st0" d="M3.7,7.8c0-1.9,0-3.8,0-5.7c0-0.1,0-0.1,0-0.2c0-0.3,0.1-0.4,0.4-0.4c0.4,0,0.7,0,1.1,0c0.1,0,0.2,0,0.2-0.2
		c0-0.3,0-0.6,0-0.9c0-0.1,0-0.1,0-0.2C5.4,0.1,5.5,0,5.7,0c0.1,0,0.1,0,0.2,0c0.7,0,1.3,0,2,0C7.9,0,8,0,8.1,0
		c0.2,0,0.3,0.1,0.3,0.3c0,0.2-0.1,0.3-0.3,0.3c-0.1,0-0.1,0-0.2,0c-0.6,0-1.1,0-1.7,0C6,0.6,5.9,0.6,6,0.7C6,1.2,6,1.6,6,2
		c0,0.1,0,0.2,0,0.3c0,0.1,0,0.2,0.1,0.2c0.4,0,0.9,0,1.3,0c0.1,0,0.1,0,0.1-0.1c0-0.2,0.1-0.3,0.1-0.5c0.2-0.4,0.7-0.5,1-0.4
		c0.4,0.1,0.6,0.3,0.7,0.8c0,0,0,0.1,0,0.1c0,0.1,0,0.1,0.1,0.1c0.4,0,0.9,0,1.3,0c0.1,0,0.2-0.1,0.2-0.2c0-0.2,0-0.4,0-0.6
		c0-0.4,0-0.7,0-1.1c0-0.1-0.1-0.1-0.1-0.1c-0.2,0-0.5,0-0.7,0c-0.2,0-0.3-0.1-0.3-0.2C9.9,0.2,10,0,10.2,0c0.4,0,0.8,0,1.2,0
		c0.2,0,0.3,0.1,0.3,0.3c0,0.2,0,0.5,0,0.7c0,0.1,0,0.3,0,0.4c0.1,0,0.3,0,0.4,0c0.3,0,0.5,0,0.8,0c0.2,0,0.3,0.1,0.4,0.3
		c0,0.1,0,0.1,0,0.2c0,3.8,0,7.7,0,11.5c0,0.1,0,0.1,0,0.2c0,0.2-0.1,0.2-0.3,0.3c-0.1,0-0.1,0-0.2,0c-1.7,0-3.5,0-5.2,0
		c-0.1,0-0.1,0-0.2,0c-0.2,0-0.3-0.1-0.3-0.3c0-0.2,0.1-0.3,0.3-0.3c0.1,0,0.1,0,0.2,0c1.6,0,3.2,0,4.7,0c0.1,0,0.1,0,0.2,0
		c0.1,0,0.1,0,0.1-0.1c0-0.1,0-0.1,0-0.2c0-3.6,0-7.1,0-10.7c0-0.4,0-0.3-0.3-0.3c-0.1,0-0.3,0-0.4,0c-0.3,0-0.3,0-0.3,0.3
		c0,0.1,0,0.3,0,0.4c0,0.2-0.1,0.3-0.4,0.3c-0.7,0-1.4,0-2.1,0C9,3.1,8.9,3,8.9,2.8c0-0.1,0-0.1,0-0.2c0-0.1,0-0.1,0-0.2
		c0-0.2-0.2-0.4-0.4-0.4c-0.2,0-0.3,0.2-0.4,0.4c0,0.1,0,0.2,0,0.3C8.1,3,8,3.1,7.8,3.1c-0.7,0-1.4,0-2.1,0C5.5,3.1,5.4,3,5.4,2.7
		c0-0.2,0-0.3,0-0.5c0-0.2,0-0.2-0.2-0.2c-0.2,0-0.4,0-0.7,0c-0.1,0-0.1,0-0.1,0.1c0,0.1,0,0.1,0,0.2c0,3.5,0,7.1,0,10.6
		c0,0,0,0,0,0.1c0,0.4,0,0.3,0.3,0.3c0.2,0,0.3,0,0.5,0c0.2,0,0.3,0.1,0.3,0.3c0,0.2-0.1,0.3-0.3,0.3c-0.4,0-0.7,0-1.1,0
		c-0.2,0-0.3-0.1-0.3-0.3c0-0.1,0-0.2,0-0.3C3.8,11.6,3.8,9.7,3.7,7.8C3.8,7.8,3.7,7.8,3.7,7.8z"/>
	<path class="st0" d="M9.7,5.9c-0.5,0-0.9,0-1.4,0c-0.1,0-0.2,0-0.3,0C8,5.8,7.9,5.7,7.9,5.5c0-0.1,0.1-0.2,0.2-0.2
		c0.1,0,0.2,0,0.3,0c0.9,0,1.8,0,2.7,0c0.1,0,0.2,0,0.3,0c0.2,0.1,0.2,0.1,0.2,0.2c0,0.2,0,0.3-0.2,0.3c-0.1,0-0.2,0-0.2,0
		C10.7,5.9,10.2,5.9,9.7,5.9z"/>
	<path class="st0" d="M9.8,8.1c-0.5,0-0.9,0-1.4,0C8.3,8.1,8.2,8,8.1,8C7.9,8,7.9,7.9,7.9,7.7c0-0.1,0.1-0.2,0.2-0.2
		c0.1,0,0.2,0,0.3,0c0.9,0,1.8,0,2.7,0c0.1,0,0.2,0,0.3,0c0.2,0.1,0.2,0.1,0.2,0.3c0,0.2-0.1,0.2-0.2,0.3c-0.1,0-0.2,0-0.2,0
		C10.6,8.1,10.2,8.1,9.8,8.1z"/>
	<path class="st0" d="M9.7,10.2c-0.4,0-0.9,0-1.3,0c-0.1,0-0.1,0-0.2,0c-0.2,0-0.3-0.1-0.2-0.3c0-0.2,0-0.2,0.2-0.3
		c0.1,0,0.2,0,0.3,0c0.9,0,1.7,0,2.6,0c0.1,0,0.2,0,0.3,0c0.2,0,0.2,0.1,0.2,0.3c0,0.2,0,0.2-0.2,0.3c-0.1,0-0.2,0-0.3,0
		C10.6,10.3,10.2,10.2,9.7,10.2z"/>
	<path class="st0" d="M7.4,9.5c0,0-0.1,0.1-0.1,0.2C7.2,9.8,7,9.8,7,9.9c0,0.1,0.1,0.2,0.2,0.3c0.2,0.2,0.2,0.3,0.1,0.4
		c-0.1,0.2-0.3,0.2-0.5,0.1c-0.1,0-0.1-0.1-0.2-0.1c-0.2-0.2-0.3-0.2-0.5,0c0,0-0.1,0.1-0.1,0.1c-0.2,0.1-0.3,0.1-0.4,0
		c-0.1-0.1-0.1-0.3,0-0.4C5.8,10.2,5.9,10.1,6,10C6,10,6,9.9,6,9.9C5.9,9.8,5.8,9.7,5.7,9.6c-0.1-0.1-0.1-0.3,0-0.4
		c0.1-0.1,0.3-0.1,0.4,0c0.1,0.1,0.2,0.1,0.3,0.2c0.1,0.1,0.2,0.1,0.3,0C6.8,9.3,6.9,9.2,7,9.2C7.2,9.1,7.4,9.2,7.4,9.5z"/>
	<path class="st0" d="M5.6,8.3c0-0.1,0.1-0.2,0.1-0.2C5.8,8,5.9,7.8,6,7.7C5.9,7.6,5.8,7.5,5.7,7.4c0-0.1-0.1-0.1-0.1-0.2
		C5.6,7,5.8,6.9,6,7C6.1,7,6.2,7.1,6.3,7.2c0.2,0.1,0.2,0.1,0.4,0C6.8,7.1,6.9,7,7,7C7.1,6.9,7.2,6.9,7.3,7c0.1,0.1,0.1,0.3,0,0.4
		C7.2,7.5,7.2,7.6,7.1,7.6C7,7.8,7,7.8,7.1,7.9C7.2,7.9,7.2,8,7.3,8.1c0.1,0.1,0.1,0.3,0,0.4C7.2,8.6,7,8.6,6.9,8.5
		C6.8,8.4,6.7,8.3,6.7,8.3c-0.1-0.1-0.2-0.1-0.3,0C6.2,8.4,6.2,8.4,6.1,8.5C6,8.6,5.9,8.6,5.8,8.5C5.7,8.5,5.6,8.4,5.6,8.3z"/>
	<path class="st0" d="M7.6,5.1c0,0.1-0.1,0.2-0.2,0.3C7.1,5.6,6.8,5.9,6.5,6.1c0,0,0,0-0.1,0.1C6.1,6.5,6,6.5,5.7,6.1
		C5.6,5.9,5.5,5.8,5.5,5.6c-0.1-0.2,0-0.3,0.1-0.4c0.1-0.1,0.2,0,0.3,0C5.9,5.3,6,5.4,6.1,5.5c0.1,0.1,0.1,0.1,0.2,0
		C6.5,5.3,6.7,5.1,7,4.9C7,4.9,7.1,4.8,7.2,4.8C7.4,4.7,7.6,4.8,7.6,5.1z"/>
	<path class="st0" d="M9.4,0c0.2,0,0.3,0.1,0.3,0.3c0,0.2-0.1,0.3-0.3,0.3c-0.1,0-0.3-0.1-0.3-0.3C9.1,0.2,9.2,0,9.4,0z"/>
	<path class="st0" d="M6.3,13.7C6.3,13.9,6.1,14,6,14c-0.2,0-0.3-0.1-0.3-0.3c0-0.2,0.1-0.3,0.3-0.3C6.2,13.4,6.3,13.6,6.3,13.7z"/>
</g>
</svg>
