<svg id="Capa_1" data-name="Capa 1" xmlns="http://www.w3.org/2000/svg" viewBox="0 0 17 14"><defs><style>.cls-1{fill:gray;}</style></defs><title>men-password</title><path class="cls-1" d="M13.42,6.11h-.64V4.28a4.28,4.28,0,0,0-8.56,0,.4.4,0,0,0,.35.4A.39.39,0,0,0,5,4.28a3.5,3.5,0,0,1,7,0V6.11H3.58a.32.32,0,0,0-.32.32V13a1,1,0,0,0,1,1h8.56a1,1,0,0,0,1-1V6.43A.32.32,0,0,0,13.42,6.11ZM13,11.73a1.49,1.49,0,0,1-1.48,1.49H5.53a1.49,1.49,0,0,1-1.48-1.49V6.89H13v4.84Z"/><path class="cls-1" d="M8.51,11.57A1.47,1.47,0,1,0,7,10.1,1.46,1.46,0,0,0,8.51,11.57Zm0-2.16a.69.69,0,1,1-.69.69A.7.7,0,0,1,8.51,9.41Z"/></svg>