<svg id="Capa_1" data-name="Capa 1" xmlns="http://www.w3.org/2000/svg" viewBox="0 0 17 14"><defs><style>.cls-1{fill:#36c;}</style></defs><title>men-filtros</title><path class="cls-1" d="M1.5,6.67V3.77c0-.27,0-.27.28-.28s.35,0,.35.34c0,1.86,0,3.72,0,5.58a.92.92,0,0,0,0,.16c0,.24.07.31.32.31H7.69a.37.37,0,0,1,.36.26c.07.18.15.36.23.54a.4.4,0,0,1-.11.51l-.51.5c-.07.07-.1.12,0,.2l.59.6a.15.15,0,0,0,.24,0L9,12a.4.4,0,0,1,.53-.1c.15.07.31.12.46.18s.3.16.3.45v.65c0,.13,0,.2.17.2s.52,0,.78,0,.18-.07.18-.2,0-.41,0-.62.06-.38.34-.49a4.47,4.47,0,0,0,.46-.19.38.38,0,0,1,.48.09l.51.5c.09.1.16.09.25,0s.37-.37.56-.55a.14.14,0,0,0,0-.24l-.48-.48a.42.42,0,0,1-.1-.54,4.19,4.19,0,0,0,.2-.49.4.4,0,0,1,.4-.29h.68c.15,0,.2-.06.2-.2s0-.5,0-.75-.06-.18-.19-.18H14a.35.35,0,0,1-.37-.27A5,5,0,0,0,13.4,8a.4.4,0,0,1,.09-.53c.17-.16.32-.33.49-.48s.09-.17,0-.26l-.57-.58c-.07-.08-.13-.07-.2,0s-.36.35-.53.54a.39.39,0,0,1-.48.09l-.54-.23a.37.37,0,0,1-.26-.38c0-.23,0-.46,0-.69s0-.21-.2-.22h-.75c-.14,0-.17.06-.17.19s0,.47,0,.71a.36.36,0,0,1-.28.4,4.1,4.1,0,0,0-.48.21A.43.43,0,0,1,9,6.67l-.48-.49c-.09-.11-.16-.09-.25,0s-.36.38-.55.55-.09.16,0,.25.33.33.49.49a.4.4,0,0,1,.1.53,3.76,3.76,0,0,0-.2.46c-.1.25-.16.29-.44.3H6.94c-.14,0-.19.05-.17.18a.28.28,0,0,1,0,.09c0,.1,0,.28,0,.28a1.54,1.54,0,0,1-.48,0s-.08-.07-.08-.11c0-.26,0-.52,0-.78s.14-.29.38-.3h.81c.09,0,.18,0,.23-.11s.07-.21,0-.31l-.48-.48c-.31-.31-.31-.43,0-.73l1-1c.29-.28.42-.27.71,0L9.18,6c.08.08.16.15.3.09a.25.25,0,0,0,.16-.27q0-.36,0-.72c0-.36.11-.46.47-.47h1.47c.32,0,.42.12.43.44v.75a.26.26,0,0,0,.46.19l.5-.51c.26-.25.39-.25.66,0l1,1c.27.28.27.39,0,.67l-.49.49a.24.24,0,0,0-.08.3.25.25,0,0,0,.27.15h.72c.35,0,.45.11.45.45v1.49c0,.32-.09.42-.4.42h-.78a.24.24,0,0,0-.26.17.23.23,0,0,0,.08.3l.55.55c.2.21.21.35,0,.56-.36.37-.73.74-1.1,1.1-.22.22-.35.21-.58,0l-.55-.55a.22.22,0,0,0-.28-.06.23.23,0,0,0-.18.25c0,.26,0,.54,0,.81s-.1.37-.37.38H10c-.27,0-.38-.11-.4-.38s0-.52,0-.78,0-.23-.17-.29-.21,0-.29.1l-.53.53c-.22.21-.35.22-.56,0L7,12.09c-.21-.23-.21-.36,0-.59s.33-.34.51-.5.16-.18.1-.33a.26.26,0,0,0-.29-.17H4.56c-.68,0-1.37,0-2,0a.94.94,0,0,1-1-1C1.52,8.56,1.5,7.61,1.5,6.67Z"/><path class="cls-1" d="M7.65,0h5a1.54,1.54,0,0,1,.37,0,.85.85,0,0,1,.68.89c0,.83,0,1.66,0,2.49,0,.35,0,.71,0,1.06s0,.21-.21.22h-.12c-.27,0-.29,0-.29-.28V1c0-.37-.05-.42-.41-.42H2.65a1.61,1.61,0,0,0-.22,0c-.23,0-.29.07-.3.31s0,.76,0,1.15c0,.22,0,.23.23.23h9.85c.4,0,.45.07.4.45a.16.16,0,0,1-.18.17H2.11c-.56,0-.61,0-.61-.6V1a.88.88,0,0,1,1-1Z"/><path class="cls-1" d="M9.07,9.42a1.8,1.8,0,0,1,1.52-1.84c.22,0,.26,0,.27.22V8a.17.17,0,0,1-.15.17l-.21,0a1.14,1.14,0,0,0-.8,1.25,1.14,1.14,0,0,0,2.23.17c.11-.37.11-.37.48-.34.17,0,.19,0,.17.21A1.66,1.66,0,0,1,12,10.65,1.76,1.76,0,0,1,9.07,9.42Z"/><path class="cls-1" d="M5.14,4.39H3.27c-.33,0-.33,0-.32-.33s0-.29.28-.29H7.16c.14,0,.21.06.2.2a0,0,0,0,0,0,0c0,.39,0,.39-.36.39Z"/><path class="cls-1" d="M5.17,5.56h-2c-.09,0-.22,0-.24-.09A2.68,2.68,0,0,1,3,5l.11,0H7.18c.11,0,.18,0,.18.17a.13.13,0,0,0,0,.06c0,.37,0,.39-.36.39Z"/><path class="cls-1" d="M4.57,6.12H6c.2,0,.2,0,.21.21v.16c0,.23,0,.24-.25.25H3.2C3,6.73,3,6.71,3,6.48V6.32c0-.19,0-.2.22-.2Z"/><path class="cls-1" d="M4.54,7.88H3.2C3,7.88,3,7.88,3,7.64V7.58c0-.3,0-.32.31-.32H5.91c.26,0,.28,0,.28.29v.12c0,.2,0,.21-.22.21Z"/><path class="cls-1" d="M4.29,8.44H5.38c.21,0,.23,0,.24.23v.16c0,.2,0,.22-.25.23H3.16C3,9.06,3,9,3,8.85V8.64c0-.15.07-.21.21-.2Z"/><path class="cls-1" d="M3.27,1.46c0,.31,0,.31-.3.31s-.32,0-.32-.29,0-.33.32-.33S3.27,1.15,3.27,1.46Z"/><path class="cls-1" d="M5.26,1.77C5,1.76,5,1.76,5,1.43s0-.29.33-.28.29,0,.29.33S5.62,1.77,5.26,1.77Z"/><path class="cls-1" d="M4.45,1.48c0,.29,0,.29-.37.29s-.26,0-.26-.33,0-.3.34-.29S4.45,1.16,4.45,1.48Z"/></svg>