<svg id="Capa_1" data-name="Capa 1" xmlns="http://www.w3.org/2000/svg" viewBox="0 0 17 14"><defs><style>.cls-1{fill:gray;}</style></defs><title>men-id</title><path class="cls-1" d="M12.47.93H9.67l.42-.56A.23.23,0,0,0,10,.05a.24.24,0,0,0-.33,0L9.08.93H7.94l-.4-.8A.24.24,0,0,0,7.23,0a.25.25,0,0,0-.11.32l.3.59H4.53a.71.71,0,0,0-.7.7V13.3a.7.7,0,0,0,.7.7h7.94a.7.7,0,0,0,.7-.7V1.63a.71.71,0,0,0-.7-.7ZM12.7,13.3a.23.23,0,0,1-.23.23H4.53a.23.23,0,0,1-.23-.23V1.63a.23.23,0,0,1,.23-.23H7.66l.23.47a.91.91,0,0,0-.32.7.93.93,0,1,0,.93-.94l-.19,0L8.18,1.4h4.29a.23.23,0,0,1,.23.23Zm-4.59-11,.18.36a.23.23,0,0,0,.21.13l.1,0a.24.24,0,0,0,.11-.32L8.53,2.1A.48.48,0,0,1,9,2.57a.47.47,0,0,1-.94,0,.45.45,0,0,1,.08-.26Zm0,0"/><path class="cls-1" d="M10.83,9.57H6.17a.23.23,0,1,0,0,.46h4.66a.23.23,0,1,0,0-.46Zm0,0"/><path class="cls-1" d="M10.83,10.73H6.17a.24.24,0,0,0-.24.24.23.23,0,0,0,.24.23h4.66a.23.23,0,0,0,.24-.23.24.24,0,0,0-.24-.24Zm0,0"/><path class="cls-1" d="M10.83,11.9H6.17a.23.23,0,0,0-.24.23.24.24,0,0,0,.24.24h4.66a.24.24,0,0,0,.24-.24.23.23,0,0,0-.24-.23Zm0,0"/><path class="cls-1" d="M9.9,8.63h.93V4H6.17V8.63ZM7.57,8.17a.93.93,0,1,1,1.86,0Zm.23-2.1a.7.7,0,1,1,.7.7.7.7,0,0,1-.7-.7ZM6.63,8.17V4.43h3.74V8.17H9.9A1.41,1.41,0,0,0,9.23,7,1.17,1.17,0,1,0,7.77,7a1.41,1.41,0,0,0-.67,1.2Zm0,0"/></svg>