<?xml version="1.0" encoding="utf-8"?>
<!-- Generator: Adobe Illustrator 22.1.0, SVG Export Plug-In . SVG Version: 6.00 Build 0)  -->
<svg version="1.1" id="Capa_1" xmlns="http://www.w3.org/2000/svg" xmlns:xlink="http://www.w3.org/1999/xlink" x="0px" y="0px"
	 viewBox="0 0 17 14" style="enable-background:new 0 0 17 14;" xml:space="preserve">
<style type="text/css">
	.st0{fill:#3366CC;}
</style>
<title>men-declaracion-manifiesto</title>
<g>
	<g>
		<g>
			<path class="st0" d="M13.8,2.5c0.2,0,0.3-0.1,0.3-0.3V0.8C14,0.4,13.7,0,13.2,0H2.3C1.9,0,1.5,0.4,1.5,0.8v12.4
				c0,0.5,0.4,0.8,0.8,0.8h10.9c0.5,0,0.8-0.4,0.8-0.8v-0.8c0-0.2-0.1-0.3-0.3-0.3s-0.3,0.1-0.3,0.3v0.8c0,0.2-0.1,0.3-0.3,0.3H2.3
				c-0.2,0-0.3-0.1-0.3-0.3V0.8c0-0.2,0.1-0.3,0.3-0.3h10.9c0.2,0,0.3,0.1,0.3,0.3v1.4C13.5,2.4,13.6,2.5,13.8,2.5z"/>
		</g>
	</g>
	<g>
		<g>
			<path class="st0" d="M12.4,1.3H3.1c-0.2,0-0.3,0.1-0.3,0.3v5.7c0,0.2,0.1,0.3,0.3,0.3c0.2,0,0.3-0.1,0.3-0.3V1.9h8.8v0.4
				c0,0.2,0.1,0.3,0.3,0.3c0.2,0,0.3-0.1,0.3-0.3V1.6C12.7,1.4,12.6,1.3,12.4,1.3z"/>
		</g>
	</g>
	<g>
		<g>
			<path class="st0" d="M3.3,8.1C3.2,8.1,3.2,8,3.1,8C3,8,2.9,8.1,2.9,8.1C2.8,8.2,2.8,8.2,2.8,8.3s0,0.1,0.1,0.2S3,8.6,3.1,8.6
				c0.1,0,0.1,0,0.2-0.1c0.1-0.1,0.1-0.1,0.1-0.2S3.3,8.2,3.3,8.1z"/>
		</g>
	</g>
	<g>
		<g>
			<path class="st0" d="M12.4,11.5c-0.2,0-0.3,0.1-0.3,0.3v0.3H3.4V9.4c0-0.2-0.1-0.3-0.3-0.3c-0.2,0-0.3,0.1-0.3,0.3v3
				c0,0.2,0.1,0.3,0.3,0.3h9.4c0.2,0,0.3-0.1,0.3-0.3v-0.6C12.7,11.7,12.6,11.5,12.4,11.5z"/>
		</g>
	</g>
	<g>
		<g>
			<path class="st0" d="M10,9.7c-0.1-0.1-0.3-0.1-0.4,0L9,10.2L8.7,9.9c-0.2-0.2-0.6-0.2-0.8,0l-0.2,0.2c-0.1,0.1-0.1,0.3,0,0.4
				c0.1,0.1,0.3,0.1,0.4,0l0.2-0.2l0.3,0.3c0.1,0.1,0.2,0.2,0.4,0.2s0.3-0.1,0.4-0.2L10,10C10.1,9.9,10.1,9.8,10,9.7z"/>
		</g>
	</g>
	<g>
		<g>
			<path class="st0" d="M15.4,5.7c0.1-0.2,0.2-0.4,0.1-0.6c-0.1-0.2-0.2-0.4-0.4-0.5c-0.1,0-0.1-0.1-0.1-0.2c0-0.2-0.1-0.4-0.2-0.6
				c-0.2-0.2-0.4-0.2-0.6-0.2c-0.1,0-0.2,0-0.2-0.1c-0.1-0.2-0.3-0.3-0.5-0.4c-0.2-0.1-0.4,0-0.6,0.1c-0.1,0.1-0.2,0.1-0.3,0
				C12.3,3,12,2.9,11.8,3c-0.2,0.1-0.4,0.2-0.5,0.4c0,0.1-0.1,0.1-0.2,0.1c-0.2,0-0.4,0.1-0.6,0.2c-0.2,0.2-0.2,0.4-0.2,0.6
				c0,0.1,0,0.2-0.1,0.2C9.9,4.7,9.8,4.9,9.7,5.1c0,0.1,0,0.2,0,0.3H4.9c-0.2,0-0.3,0.1-0.3,0.3S4.8,6,4.9,6h4.9c0,0,0,0,0,0
				C9.7,6.2,9.7,6.4,9.7,6.6c0,0,0,0.1,0,0.1H4.9C4.8,6.7,4.7,6.8,4.7,7c0,0.2,0.1,0.3,0.3,0.3h5.3c0,0,0,0.1,0,0.1
				c0,0.2,0.1,0.4,0.2,0.6c0.2,0.2,0.4,0.2,0.6,0.2c0.1,0,0.2,0,0.2,0.1c0,0.1,0.1,0.1,0.1,0.2v2.6c0,0.1,0.1,0.2,0.2,0.3
				c0.1,0,0.2,0,0.3-0.1l0.7-0.7l0.7,0.7c0.1,0.1,0.1,0.1,0.2,0.1c0,0,0.1,0,0.1,0c0.1,0,0.2-0.1,0.2-0.3V8.5c0-0.1,0.1-0.1,0.1-0.2
				c0-0.1,0.1-0.1,0.2-0.1c0.2,0,0.4-0.1,0.6-0.2c0.2-0.2,0.2-0.4,0.2-0.6c0-0.1,0-0.2,0.1-0.2c0.2-0.1,0.3-0.3,0.4-0.5
				c0.1-0.2,0-0.4-0.1-0.6C15.3,5.9,15.3,5.8,15.4,5.7z M13.2,10.4L12.8,10c-0.1-0.1-0.3-0.1-0.4,0L12,10.4V8.8c0.2,0,0.3,0,0.5-0.1
				c0.1-0.1,0.2-0.1,0.3,0c0.1,0.1,0.3,0.1,0.4,0.1c0,0,0,0,0,0L13.2,10.4L13.2,10.4z M14.9,6.5c0,0.1-0.1,0.1-0.1,0.2
				c-0.3,0.1-0.4,0.4-0.4,0.7c0,0.1,0,0.1-0.1,0.2c-0.1,0.1-0.1,0.1-0.2,0.1c-0.3,0-0.6,0.2-0.7,0.4c0,0.1-0.1,0.1-0.2,0.1
				c-0.1,0-0.1,0-0.2,0c-0.1-0.1-0.3-0.1-0.4-0.1c-0.1,0-0.3,0-0.4,0.1c-0.1,0-0.1,0-0.2,0c-0.1,0-0.1-0.1-0.2-0.1
				c-0.1-0.3-0.4-0.4-0.7-0.4c-0.1,0-0.1,0-0.2-0.1c-0.1-0.1-0.1-0.1-0.1-0.2c0-0.2-0.1-0.4-0.2-0.6c0,0,0,0,0,0
				c-0.1-0.1-0.1-0.1-0.2-0.1c-0.1,0-0.1-0.1-0.1-0.2s0-0.1,0-0.2c0.2-0.3,0.2-0.6,0-0.9c0-0.1,0-0.1,0-0.2c0-0.1,0.1-0.1,0.1-0.2
				c0.3-0.1,0.4-0.4,0.4-0.7c0-0.1,0-0.1,0.1-0.2c0.1-0.1,0.1-0.1,0.2-0.1c0.3,0,0.6-0.2,0.7-0.4c0-0.1,0.1-0.1,0.2-0.1
				c0.1,0,0.1,0,0.2,0c0.3,0.2,0.6,0.2,0.9,0c0.1,0,0.1,0,0.2,0c0.1,0,0.1,0.1,0.2,0.1c0.1,0.3,0.4,0.4,0.7,0.4c0.1,0,0.1,0,0.2,0.1
				c0.1,0.1,0.1,0.1,0.1,0.2c0,0.3,0.2,0.6,0.4,0.7c0.1,0,0.1,0.1,0.1,0.2c0,0.1,0,0.1,0,0.2c-0.2,0.3-0.2,0.6,0,0.9
				C15,6.4,15,6.4,14.9,6.5z"/>
		</g>
	</g>
	<g>
		<g>
			<path class="st0" d="M13.9,5.1c-0.1-0.1-0.3-0.1-0.4,0L12.6,6l-0.4-0.4c-0.1-0.1-0.3-0.1-0.4,0c-0.1,0.1-0.1,0.3,0,0.4l0.6,0.6
				c0.1,0.1,0.1,0.1,0.2,0.1s0.1,0,0.2-0.1l1.1-1.1C14,5.4,14,5.2,13.9,5.1z"/>
		</g>
	</g>
	<g>
		<g>
			<path class="st0" d="M4.8,3.3C4.8,3.3,4.7,3.2,4.6,3.2c-0.1,0-0.1,0-0.2,0.1C4.4,3.4,4.4,3.4,4.4,3.5c0,0.1,0,0.1,0.1,0.2
				c0.1,0.1,0.1,0.1,0.2,0.1c0.1,0,0.1,0,0.2-0.1c0.1-0.1,0.1-0.1,0.1-0.2S4.9,3.4,4.8,3.3z"/>
		</g>
	</g>
	<g>
		<g>
			<path class="st0" d="M7,3.2H5.7c-0.2,0-0.3,0.1-0.3,0.3c0,0.2,0.1,0.3,0.3,0.3H7c0.2,0,0.3-0.1,0.3-0.3S7.1,3.2,7,3.2z"/>
		</g>
	</g>
	<g>
		<g>
			<path class="st0" d="M9.8,8H6.7C6.5,8,6.4,8.2,6.4,8.3s0.1,0.3,0.3,0.3h3.1c0.2,0,0.3-0.1,0.3-0.3S9.9,8,9.8,8z"/>
		</g>
	</g>
</g>
</svg>
