<svg id="Capa_1" data-name="Capa 1" xmlns="http://www.w3.org/2000/svg" viewBox="0 0 17 14"><defs><style>.cls-1{fill:#fff;}</style></defs><title>men-twitter</title><path class="cls-1" d="M16.72,1.9a6.72,6.72,0,0,1-1.94.53A3.31,3.31,0,0,0,16.26.57a6.61,6.61,0,0,1-2.14.82A3.37,3.37,0,0,0,8.29,3.7a3.16,3.16,0,0,0,.09.76,9.55,9.55,0,0,1-7-3.52,3.37,3.37,0,0,0,1,4.5A3.46,3.46,0,0,1,.94,5v0A3.39,3.39,0,0,0,3.65,8.37a3.74,3.74,0,0,1-.89.11,3.39,3.39,0,0,1-.64-.06,3.37,3.37,0,0,0,3.15,2.34A6.7,6.7,0,0,1,1.09,12.2a7.2,7.2,0,0,1-.81,0,9.53,9.53,0,0,0,5.17,1.52A9.53,9.53,0,0,0,15,4.08V3.65A6.86,6.86,0,0,0,16.72,1.9Z"/></svg>