<svg id="Capa_1" data-name="Capa 1" xmlns="http://www.w3.org/2000/svg" viewBox="0 0 17 14"><defs><style>.cls-1{fill:#36c;}</style></defs><title>men-datos</title><path class="cls-1" d="M12.82,10.89a.27.27,0,0,0-.27.28v2a.28.28,0,0,1-.28.27H2.32a.27.27,0,0,1-.27-.27V.82A.27.27,0,0,1,2.32.55h10a.28.28,0,0,1,.28.27v3a.27.27,0,1,0,.54,0v-3A.82.82,0,0,0,12.27,0H2.32A.82.82,0,0,0,1.5.82V13.18a.82.82,0,0,0,.82.82h10a.82.82,0,0,0,.82-.82v-2A.27.27,0,0,0,12.82,10.89Z"/><path class="cls-1" d="M9.81,4A2.52,2.52,0,1,0,5.57,5.82l0,0a2.5,2.5,0,0,0,1.7.66A2.48,2.48,0,0,0,9,5.85l0,0A2.5,2.5,0,0,0,9.81,4ZM7.3,2A2,2,0,0,1,8.88,5.16a2,2,0,0,0-.8-.68,1,1,0,0,0,.2-.6V3.71a1,1,0,1,0-2,0v.17a1,1,0,0,0,.21.6,1.92,1.92,0,0,0-.81.68A2,2,0,0,1,7.3,2ZM6.86,3.88V3.71a.44.44,0,0,1,.44-.44.43.43,0,0,1,.43.44v.17a.44.44,0,0,1-.43.44A.44.44,0,0,1,6.86,3.88ZM6.11,5.56a1.37,1.37,0,0,1,2.38,0A2,2,0,0,1,7.3,6,2,2,0,0,1,6.11,5.56Z"/><path class="cls-1" d="M8.77,12H7.3a.27.27,0,1,0,0,.54H8.77a.27.27,0,1,0,0-.54Z"/><path class="cls-1" d="M8.77,10.45H4.89a.27.27,0,1,0,0,.54H8.77a.27.27,0,1,0,0-.54Z"/><path class="cls-1" d="M8.77,8.91H4.89a.28.28,0,0,0-.27.28.27.27,0,0,0,.27.27H8.77a.28.28,0,0,0,.28-.27A.29.29,0,0,0,8.77,8.91Z"/><path class="cls-1" d="M3.92,7.46a.3.3,0,0,0-.2-.08.27.27,0,0,0-.19.08.28.28,0,0,0-.08.2.27.27,0,0,0,.27.27.3.3,0,0,0,.2-.08A.27.27,0,0,0,4,7.66.28.28,0,0,0,3.92,7.46Z"/><path class="cls-1" d="M3.92,9a.3.3,0,0,0-.2-.08A.27.27,0,0,0,3.53,9a.32.32,0,0,0-.08.2.27.27,0,0,0,.27.27.3.3,0,0,0,.2-.08A.27.27,0,0,0,4,9.19.32.32,0,0,0,3.92,9Z"/><path class="cls-1" d="M3.72,10.45a.24.24,0,0,0-.19.08.27.27,0,0,0,.19.46.3.3,0,0,0,.2-.08.27.27,0,0,0,0-.38A.26.26,0,0,0,3.72,10.45Z"/><path class="cls-1" d="M8.77,7.38H4.89a.28.28,0,0,0-.27.28.27.27,0,0,0,.27.27H8.77a.28.28,0,0,0,.28-.27A.29.29,0,0,0,8.77,7.38Z"/><path class="cls-1" d="M14.93,3.56a1.17,1.17,0,0,0-.88-.11,1.15,1.15,0,0,0-.69.53l-3.44,6a.49.49,0,0,0,0,.11l-.24,2.17a.29.29,0,0,0,.13.27.35.35,0,0,0,.14,0,.24.24,0,0,0,.16,0l1.76-1.29.08-.09,3.44-6A1.16,1.16,0,0,0,14.93,3.56Zm-4.55,7,.79.45-.92.68Zm1.19.05-1-.6L13.29,5.2l1,.6Zm3.3-5.72-.27.47-1-.61.27-.46A.58.58,0,0,1,14.2,4a.6.6,0,0,1,.73.42A.61.61,0,0,1,14.87,4.86Z"/></svg>