<svg id="Capa_1" data-name="Capa 1" xmlns="http://www.w3.org/2000/svg" viewBox="0 0 17 14"><defs><style>.cls-1{fill:gray;}</style></defs><title>men-direccion</title><path class="cls-1" d="M7.09,12.57V14l-.35-.28a22.33,22.33,0,0,1-2.59-2.54c-1.77-2-2.67-3.85-2.67-5.41V5.61a5.61,5.61,0,1,1,11.21,0v.15a2.68,2.68,0,0,1,0,.4l-1.09-1a4.51,4.51,0,0,0-9,.45v.15c0,2.64,3.4,5.84,4.51,6.81Zm3.36-.78h1.64V10.14H10.45ZM7.09,3.28A2.33,2.33,0,1,1,4.76,5.61,2.32,2.32,0,0,1,7.09,3.28Zm0,1.09A1.24,1.24,0,1,0,8.32,5.61,1.24,1.24,0,0,0,7.09,4.37ZM14.78,11l-.31-.28v1.76A1.48,1.48,0,0,1,13,14H9.53A1.49,1.49,0,0,1,8,12.52V10.76l-.3.28L7,10.23l4.26-3.88,4.26,3.88Zm-1.4-1.28L11.26,7.83,9.14,9.76v2.76a.39.39,0,0,0,.39.39H13a.4.4,0,0,0,.39-.39Zm0,0"/></svg>