<svg id="Capa_1" data-name="Capa 1" xmlns="http://www.w3.org/2000/svg" viewBox="0 0 17 14"><defs><style>.cls-1{fill:#fff;}</style></defs><title>men-borrar</title><path class="cls-1" d="M13.08,1.65H11.21V.43A.44.44,0,0,0,10.77,0a.06.06,0,0,0,0,0l0,0H6.23A.43.43,0,0,0,5.8.43V1.65H3.92A.94.94,0,0,0,3,2.6V4.16H3.8v8.89a.93.93,0,0,0,.94.95h7.52a.94.94,0,0,0,1-.95V4.16H14V2.6a.94.94,0,0,0-.95-1ZM6.67.87h3.66v.78H6.67Zm5.67,12.18c0,.06,0,.08-.08.08H4.74s-.08,0-.08-.08V4.16h7.68Zm.82-9.75H3.84V2.6a.07.07,0,0,1,.08-.08h9.16a.07.07,0,0,1,.08.08Zm0,0"/><rect class="cls-1" x="10.09" y="5.18" width="0.87" height="7.18"/><rect class="cls-1" x="8.07" y="5.18" width="0.88" height="7.18"/><rect class="cls-1" x="6.05" y="5.18" width="0.87" height="7.18"/></svg>