<svg id="Capa_1" data-name="Capa 1" xmlns="http://www.w3.org/2000/svg" viewBox="0 0 17 14"><defs><style>.cls-1{fill:#fff;}</style></defs><title>men-alerta</title><path class="cls-1" d="M2.32,11.13a1.23,1.23,0,0,0,1.23,1.23H6.49a2.05,2.05,0,0,0,4,0h2.94a1.23,1.23,0,0,0,.19-2.45A4.55,4.55,0,0,1,12.22,6.6V5.33A3.68,3.68,0,0,0,11,2.61a3.78,3.78,0,0,0-1.28-.76V1.23a1.23,1.23,0,0,0-2.46,0v.63A3.7,3.7,0,0,0,5.73,2.94a3.93,3.93,0,0,0-1,2.56V6.6A4.55,4.55,0,0,1,3.36,9.91,1.23,1.23,0,0,0,2.32,11.13Zm6.18,2a1.23,1.23,0,0,1-1.16-.82H9.66A1.23,1.23,0,0,1,8.5,13.18ZM8.09,1.23a.41.41,0,0,1,.82,0v.43a4,4,0,0,0-.77,0H8.09ZM5.6,6.6V5.5a3,3,0,0,1,2.62-3,3,3,0,0,1,2.24.75,2.84,2.84,0,0,1,.94,2.11V6.6a5.15,5.15,0,0,0,1.14,3.3H4.46A5.15,5.15,0,0,0,5.6,6.6Zm-2,4.12h9.9a.41.41,0,0,1,0,.82H3.55a.41.41,0,1,1,0-.82Z"/><path class="cls-1" d="M2.79,2a.41.41,0,0,0-.55.18A6.92,6.92,0,0,0,1.5,5.33a7.12,7.12,0,0,0,.44,2.48.42.42,0,0,0,.39.26.34.34,0,0,0,.14,0,.41.41,0,0,0,.24-.53,6.43,6.43,0,0,1-.39-2.19A6.11,6.11,0,0,1,3,2.58.41.41,0,0,0,2.79,2Z"/><path class="cls-1" d="M14.21,2a.41.41,0,0,0-.18.55,6.11,6.11,0,0,1,.65,2.75,6.43,6.43,0,0,1-.39,2.19.41.41,0,0,0,.24.53.34.34,0,0,0,.14,0,.42.42,0,0,0,.39-.26,7.12,7.12,0,0,0,.44-2.48,6.92,6.92,0,0,0-.74-3.12A.41.41,0,0,0,14.21,2Z"/><path class="cls-1" d="M3.78,3.78a.41.41,0,0,0-.49.31,5.13,5.13,0,0,0-.15,1.24,5.28,5.28,0,0,0,.09,1,.41.41,0,0,0,.4.34h.08A.39.39,0,0,0,4,6.18,5.73,5.73,0,0,1,4,5.33a4.63,4.63,0,0,1,.12-1A.41.41,0,0,0,3.78,3.78Z"/><path class="cls-1" d="M13.29,6.65h.08a.41.41,0,0,0,.4-.34,5.28,5.28,0,0,0,.09-1,5.13,5.13,0,0,0-.15-1.24.41.41,0,1,0-.79.19,4.63,4.63,0,0,1,.12,1,5.73,5.73,0,0,1-.07.85A.39.39,0,0,0,13.29,6.65Z"/></svg>