<svg id="Capa_1" data-name="Capa 1" xmlns="http://www.w3.org/2000/svg" viewBox="0 0 17 14"><defs><style>.cls-1{fill:gray;}</style></defs><title>men-ciudad</title><path class="cls-1" d="M3,8H4.22a.31.31,0,0,0,.31-.3V6.47a.31.31,0,0,0-.31-.3H3a.3.3,0,0,0-.3.3v1.2A.3.3,0,0,0,3,8Zm.31-1.19h.64v.58H3.28Zm0,0"/><path class="cls-1" d="M3,10.38H4.22a.31.31,0,0,0,.31-.31V8.88a.3.3,0,0,0-.31-.3H3a.29.29,0,0,0-.3.3v1.19a.3.3,0,0,0,.3.31Zm.31-1.19h.64v.58H3.28Zm0,0"/><path class="cls-1" d="M7.49,5.14H8.8a.31.31,0,0,0,.31-.31V3.58a.31.31,0,0,0-.31-.31H7.49a.31.31,0,0,0-.31.31V4.83a.31.31,0,0,0,.31.31Zm.3-1.26h.7v.65h-.7Zm0,0"/><path class="cls-1" d="M10.2,5.14h1.32a.3.3,0,0,0,.3-.31V3.58a.3.3,0,0,0-.3-.31H10.2a.31.31,0,0,0-.3.31V4.83a.31.31,0,0,0,.3.31Zm.31-1.26h.7v.65h-.7Zm0,0"/><path class="cls-1" d="M8.83,5.92H7.52a.3.3,0,0,0-.3.3V7.48a.29.29,0,0,0,.3.3H8.83a.3.3,0,0,0,.31-.3V6.22a.31.31,0,0,0-.31-.3Zm-.3,1.25h-.7V6.53h.7Zm0,0"/><path class="cls-1" d="M11.55,5.92H10.24a.31.31,0,0,0-.31.3V7.48a.3.3,0,0,0,.31.3h1.31a.3.3,0,0,0,.31-.3V6.22a.31.31,0,0,0-.31-.3Zm-.31,1.25h-.7V6.53h.7Zm0,0"/><path class="cls-1" d="M16.32,8.71a6.54,6.54,0,0,0-1-2c-.27-.34-.6-.7-1-.7h0a1.24,1.24,0,0,0-.9.55V1.78h.09a.89.89,0,1,0,0-1.78h-8a.89.89,0,0,0,0,1.78h.09V3.15H1.41a.91.91,0,0,0-.25,1.79v8.45H1A.31.31,0,1,0,1,14H14.64a.3.3,0,0,0,.3-.31.3.3,0,0,0-.29-.3V11.92a1.82,1.82,0,0,0,1.64-1,3.2,3.2,0,0,0,0-2.22Zm-14.91-5H5.55v.61H1.41a.31.31,0,0,1-.31-.31.3.3,0,0,1,.31-.3Zm4.14,9.63H1.78V5H5.55Zm3.53,0H8v-3.2H9.08Zm1.68,0H9.69v-3.2h1.07Zm2,0H11.37V9.88a.3.3,0,0,0-.3-.3H7.69a.31.31,0,0,0-.3.3v3.51H6.17V1.78H8.26a.31.31,0,1,0,0-.61H5.46a.28.28,0,0,1,0-.56h8a.28.28,0,0,1,.28.28.29.29,0,0,1-.28.28h-2.8a.31.31,0,0,0,0,.61h2.1V7.45a5.65,5.65,0,0,0-.65,2.14,2.14,2.14,0,0,0,.65,1.86Zm1.25,0H13.4V11.74a1.58,1.58,0,0,0,.64.18Zm1.71-2.73a1.29,1.29,0,0,1-1.1.65V10l.46-.43a.31.31,0,0,0,0-.43.29.29,0,0,0-.43,0l0,0v-1a.3.3,0,0,0-.3-.31.31.31,0,0,0-.31.31v.55l0,0a.31.31,0,0,0-.43,0,.32.32,0,0,0,0,.44L14,9.6V10l-.24-.17a.31.31,0,0,0-.36.5l.6.42v.56a1.31,1.31,0,0,1-1.13-.68,3.57,3.57,0,0,1,.41-2.88h0a5.16,5.16,0,0,1,.42-.67c.31-.4.47-.48.55-.48h0c.08,0,.23.08.53.47.69.89,1.39,2.64.92,3.6Zm0,0"/><path class="cls-1" d="M9.48,1.17h0a.31.31,0,1,0,0,.61h0a.31.31,0,1,0,0-.61Zm0,0"/></svg>