<svg id="Capa_1" data-name="Capa 1" xmlns="http://www.w3.org/2000/svg" viewBox="0 0 17 14"><defs><style>.cls-1{fill:#36c;}</style></defs><title>men-documentos-recibidos</title><path class="cls-1" d="M12,5.83H6.17a.24.24,0,0,0-.24.24.23.23,0,0,0,.24.23H12a.23.23,0,0,0,.23-.23A.23.23,0,0,0,12,5.83Zm0,0"/><path class="cls-1" d="M6.17,4.43H8.5A.23.23,0,1,0,8.5,4H6.17a.23.23,0,1,0,0,.46Zm0,0"/><path class="cls-1" d="M12,7.7H6.17a.23.23,0,0,0-.24.23.24.24,0,0,0,.24.24H12a.23.23,0,0,0,.23-.24A.23.23,0,0,0,12,7.7Zm0,0"/><path class="cls-1" d="M12,9.57H6.17a.23.23,0,1,0,0,.46H12a.23.23,0,0,0,0-.46Zm0,0"/><path class="cls-1" d="M12,11.43H6.17a.24.24,0,0,0-.24.24.23.23,0,0,0,.24.23H12a.23.23,0,0,0,.23-.23.23.23,0,0,0-.23-.24Zm0,0"/><path class="cls-1" d="M12.93,3.4V0H2.9V12.83H4.07V14h10V4.57ZM10.83,2,13.3,4.43H10.83ZM3.37,12.37V.47h9.1V2.94L10.7,1.17H4.07v11.2Zm1.16,1.16V1.63h5.84V4.9h3.26v8.63Zm0,0"/></svg>