<svg id="Capa_1" data-name="Capa 1" xmlns="http://www.w3.org/2000/svg" viewBox="0 0 17 14"><defs><style>.cls-1{fill:#36c;}</style></defs><title>men-pregarado</title><path class="cls-1" d="M11.56,12.51a.24.24,0,0,0-.3.18l-.25,1a.24.24,0,0,0,.18.3h.06a.26.26,0,0,0,.24-.19l.25-1a.24.24,0,0,0-.18-.3Zm0,0"/><path class="cls-1" d="M8.5,7.5l.1,0,2.75-1.14A.25.25,0,0,0,11.48,6a.25.25,0,0,0-.33-.14L8.5,7l-7-2.9V4A.25.25,0,0,0,1,4v.25a.25.25,0,0,0,.15.23l7.25,3,.1,0Zm0,0"/><path class="cls-1" d="M11.47,10.06a.25.25,0,0,0-.33-.11,5.83,5.83,0,0,1-2.39.54V8.25a.25.25,0,0,0-.5,0v2.24c-3.1-.1-4.11-2-4.25-2.29V6.5a.25.25,0,0,0-.5,0V8.25a.29.29,0,0,0,0,.09c0,.11,1.11,2.66,5,2.66a6.53,6.53,0,0,0,2.86-.6.25.25,0,0,0,.11-.34Zm0,0"/><path class="cls-1" d="M12.25,12.75A.25.25,0,0,0,12,13v.75a.25.25,0,0,0,.5,0V13a.25.25,0,0,0-.25-.25Zm0,0"/><path class="cls-1" d="M15.75,3.75A.25.25,0,0,0,15.5,4v.08l-3,1.24V4.87l3.35-1.39a.25.25,0,0,0,0-.46L8.6,0a.23.23,0,0,0-.2,0L1.15,3a.25.25,0,0,0,0,.46l7.25,3,.1,0,.1,0L11.22,5.4a.25.25,0,0,0,.13-.33A.25.25,0,0,0,11,4.93L8.5,6,1.9,3.25,8.5.52l6.6,2.73L12.23,4.44l-2.75-1a.78.78,0,0,0,0-.16c0-.42-.44-.75-1-.75s-1,.33-1,.75S7.94,4,8.5,4a1.24,1.24,0,0,0,.65-.18L12,4.89v6.16a.74.74,0,0,0-.5.7.75.75,0,0,0,1.5,0,.74.74,0,0,0-.5-.7V9.63a3,3,0,0,0,1-1.3.19.19,0,0,0,0-.08V6.5a.25.25,0,0,0-.5,0V8.2a2.35,2.35,0,0,1-.5.76V5.86l3.35-1.38A.25.25,0,0,0,16,4.25V4a.25.25,0,0,0-.25-.25ZM8.5,3.5c-.31,0-.5-.15-.5-.25S8.19,3,8.5,3s.5.15.5.25-.19.25-.5.25ZM12.25,12a.25.25,0,1,1,.25-.25.25.25,0,0,1-.25.25Zm0,0"/><path class="cls-1" d="M13.24,12.69a.25.25,0,0,0-.48.12l.25,1a.26.26,0,0,0,.24.19h.06a.24.24,0,0,0,.18-.3Zm0,0"/></svg>