<svg xmlns="http://www.w3.org/2000/svg" viewBox="0 0 347.2 346.01"><defs><style>.cls-1{fill:#1f55c0;}</style></defs><title>agregar instituciones</title><g id="Capa_2" data-name="Capa 2"><g id="Capa_1-2" data-name="Capa 1"><path class="cls-1" d="M8.79,106.05a8.87,8.87,0,0,1-6.69-2.42A8.73,8.73,0,0,1,0,96.9C.28,92.07.17,87.15,0,83s1.74-7,5.58-8.66c27.18-12.14,54.8-24.53,81.5-36.51l27.77-12.46,17.57-7.86c12-5.38,24.47-10.95,36.67-16.46a10.19,10.19,0,0,1,9,0c59.82,26.85,113,50.69,162.74,72.87A9.7,9.7,0,0,1,347.18,84a132.21,132.21,0,0,0,0,13.53,8.21,8.21,0,0,1-2,6.21,8.41,8.41,0,0,1-6.32,2.26c-40.4-.06-81.48-.05-121.21-.05H146.14c-45,0-91.49,0-137.23.06H8.79Zm2.28-22.12c.1,3.43.16,7.23,0,11.12,45-.07,90.77-.07,135-.06h71.51c38.81,0,78.92,0,118.42,0-.12-4-.08-7.67.1-11.15-49.64-22.16-102.82-46-162.58-72.8C161.39,16.6,149,22.15,137,27.53l-17.57,7.86L91.63,47.84C65.23,59.68,38,71.92,11.07,83.93Zm162.51,4h-.08a29.54,29.54,0,1,1,.08,0Zm.06-48a18.48,18.48,0,0,0-.11,37h.05a18.48,18.48,0,0,0,.18-37Z"/><path class="cls-1" d="M73.84,346h-60C4.2,346,.09,341.85.09,332.1c0-1.28,0-2.57,0-3.86,0-3,.06-5.91-.08-8.77a8.31,8.31,0,0,1,2-6.25A8.4,8.4,0,0,1,8.31,311c33.9.06,68.36.06,101.69.06h91.2c44.94,0,91.4,0,137.1-.07h0c1.35,0,4.52,0,6.82,2.44a8.67,8.67,0,0,1,2.05,6.75c-.16,2.79-.13,5.61-.09,8.6,0,1.33,0,2.66,0,4,0,9-4.41,13.3-13.46,13.3ZM11.27,334.83a13.94,13.94,0,0,0,2.57.18H333.65a11,11,0,0,0,2.3-.18,11,11,0,0,0,.16-2.13c0-1.27,0-2.55,0-3.83,0-2.26-.06-4.58,0-6.93-45,.07-90.68.07-134.89.07H110c-32.41,0-65.89,0-98.88-.05,0,2.16,0,4.3,0,6.39,0,1.25,0,2.5,0,3.75A15.33,15.33,0,0,0,11.27,334.83Z"/><path class="cls-1" d="M63.24,279.33H62.7c-6.46-.24-12.9-.15-18.9,0h0a6.81,6.81,0,0,1-5.17-1.85c-2.08-2-2.08-4.88-2.08-6.09.05-41.71.05-84,0-125.71,0-1.21,0-4.06,2.07-6.09a6.88,6.88,0,0,1,5.17-1.86c7.19.15,13.49.15,19.26,0a7.16,7.16,0,0,1,5.44,1.9c2.16,2.11,2.15,5.07,2.15,6.49-.07,15.88-.06,32,0,47.67v29.91c0,15.36,0,31.24.07,46.85,0,1.65,0,4.72-2.23,6.91A7.33,7.33,0,0,1,63.24,279.33Zm-19.68-10,.13,5-.1-5Zm10.27-.13c2.24,0,4.52,0,6.81.08-.08-15.22-.07-30.66-.06-45.6V193.74c0-15.07,0-30.64,0-46-4.38.08-9,.08-14.08,0,.05,40.32.05,81.18,0,121.5C48.93,269.2,51.36,269.17,53.83,269.17Z"/><path class="cls-1" d="M183.25,279.33h-.54c-6.47-.24-12.91-.15-18.9,0h0a6.89,6.89,0,0,1-5.17-1.85c-2.08-2-2.08-4.88-2.08-6.09.05-41.71.05-84,0-125.71,0-1.21,0-4.06,2.08-6.09a6.81,6.81,0,0,1,5.17-1.86c7.19.15,13.49.15,19.25,0a7.17,7.17,0,0,1,5.44,1.9c2.16,2.11,2.15,5.07,2.15,6.49-.07,16-.06,32.29-.05,48V224c0,15.25,0,31,.07,46.53,0,1.65,0,4.72-2.23,6.91A7.33,7.33,0,0,1,183.25,279.33Zm-9.42-10.16c2.25,0,4.52,0,6.82.08-.07-15.11-.07-30.44-.06-45.29V194.12c0-15.2,0-30.9,0-46.38-4.38.08-9,.08-14.08,0,.05,40.33.05,81.18,0,121.5C168.93,269.2,171.36,269.17,173.83,269.17Z"/><path class="cls-1" d="M281.6,184.5a60,60,0,1,0,60,60.09A60,60,0,0,0,281.6,184.5Zm0,114a54,54,0,1,1,54-54A54,54,0,0,1,281.65,298.49Z"/><path class="cls-1" d="M77.63,118.9c.13-2-.49-2.47-2.45-2.46-12,.1-24,0-36,.08-3.16,0-7.5-1.4-9.14.59s-.34,6.1-.51,9.28c-.09,1.7.45,2.16,2.14,2.14,7.2-.09,14.4,0,21.6,0,4.9,0,9.8.07,14.69,0,3.16-.07,7.39,1.37,9.16-.6C78.69,126.14,77.43,122,77.63,118.9Z"/><path class="cls-1" d="M197.64,118.59c.09-1.7-.45-2.16-2.15-2.14-7.19.09-14.39,0-21.59,0-4.9,0-9.8-.07-14.69,0-3.16.06-7.39-1.38-9.16.6-1.55,1.73-.29,5.89-.49,9-.13,2,.49,2.46,2.45,2.45,12-.1,24,0,36-.08,3.16,0,7.5,1.4,9.14-.59S197.47,121.77,197.64,118.59Z"/><path class="cls-1" d="M317.16,127.86c1.56-1.73.29-5.89.49-9,.14-2-.5-2.46-2.45-2.45-12,.1-24,0-36,.08-3.15,0-7.5-1.4-9.13.59s-.34,6.1-.51,9.28c-.09,1.71.46,2.16,2.15,2.14,7.3-.09,14.59,0,21.89,0,4.8,0,9.6.07,14.4,0C311.16,128.4,315.39,129.84,317.16,127.86Z"/><path class="cls-1" d="M75.27,288.46c-7.19.1-14.39,0-21.59,0s-14.6,0-21.89,0c-1.57,0-2.36.19-2.24,2a70.43,70.43,0,0,1,0,8.09c-.1,1.7.6,1.92,2.06,1.92q22-.06,44.08,0c1.68,0,2-.58,1.93-2.05a67.47,67.47,0,0,1,0-7.79C77.79,288.71,77,288.44,75.27,288.46Z"/><path class="cls-1" d="M152.22,300.55c7.1-.12,14.2-.05,21.3-.05,7.29,0,14.59,0,21.89,0,1.57,0,2.35-.2,2.23-2a70.43,70.43,0,0,1,0-8.09c.1-1.71-.62-1.92-2.06-1.91q-22.05.06-44.09,0c-1.69,0-2,.6-1.92,2.06a58.49,58.49,0,0,1,0,7.49C149.35,300.24,150.23,300.58,152.22,300.55Z"/><path class="cls-1" d="M309.58,185.66l-6-3.53c-6.72-3.95-11.3-4-17.11-4.18-1.13,0-2.28,0-3.48-.1-5.43-.23-5.39-6.1-5.37-8.92l0-2.37c.05-6.5.1-13.23,0-19.78-.08-3.4.21-5.85,1.91-7.54a5.6,5.6,0,0,1,4.25-1.56c4.85.1,9.8.08,14.6.07h5.3a5.12,5.12,0,0,1,4.09,1.22c1.62,1.49,1.94,3.67,1.92,6.49-.07,10.34-.07,16.84-.06,25.84Zm-24-15.73,1,0c4.8.11,9.39.21,15,2.34v-1c0-8.92,0-15.39.06-25.56h-3.29c-4.19,0-8.5,0-12.79,0v.89c.15,6.67.1,13.46.05,20l0,2.37Z"/><path class="cls-1" d="M281.91,202.5a42,42,0,1,0,41.7,42.23C323.69,221.7,304.84,202.61,281.91,202.5Zm28.67,48.64H290.27l.06,0a5.73,5.73,0,0,1,3.24,5.86,5.9,5.9,0,0,1-3.94,5.13,2,2,0,0,1-1.59.2v11.32H274.12V251.14H251.58V237.22H271.9a6,6,0,0,1-1.26-8c.87-1.27,2.09-2.46,3.48-2.56V214.68H288v22.54h22.54Z"/><path class="cls-1" d="M274.12,226.62c-1.39.1-2.61,1.29-3.48,2.56a6,6,0,0,0,1.26,8h2.22Z"/><path class="cls-1" d="M288,262.36a2,2,0,0,0,1.59-.2,5.9,5.9,0,0,0,3.94-5.13,5.73,5.73,0,0,0-3.24-5.86l-.06,0H288Z"/></g></g></svg>