<svg xmlns="http://www.w3.org/2000/svg" viewBox="0 0 226.69 139.46"><defs><style>.cls-1{fill:#383838;}</style></defs><title>felcha arriba</title><g id="Capa_2" data-name="Capa 2"><g id="Capa_1-2" data-name="Capa 1"><path class="cls-1" d="M113.66,52.63c-.5.36-.72.49-.91.66-.35.32-.67.66-1,1Q69.65,96.38,27.6,138.51c-1.31,1.31-1.88,1.16-3.07-.06q-11.82-12-23.8-23.9c-1-1-.93-1.51,0-2.47Q56.47,56.44,112.09.74c1-1,1.54-1,2.52,0q55.63,55.71,111.33,111.33c1,1,1,1.49,0,2.48q-12,12-23.93,24.05c-1.11,1.12-1.66,1.12-2.78,0q-42.1-42.21-84.29-84.36A16.73,16.73,0,0,1,113.66,52.63Z"/></g></g></svg>