<svg id="Capa_1" data-name="Capa 1" xmlns="http://www.w3.org/2000/svg" viewBox="0 0 17 14"><defs><style>.cls-1{fill:#36c;}</style></defs><title>men-declaracion-manifiesto</title><path class="cls-1" d="M11.38,11.52a2.05,2.05,0,0,0,0,.78,6.62,6.62,0,0,0,.77,0,.67.67,0,0,0,.54-.46,1,1,0,0,0,.07-.58.41.41,0,0,1,.26-.44c.28.08.32.13.32.38a2.35,2.35,0,0,1-.06.83,1.44,1.44,0,0,1-1.26.91h-.67v.7c0,.34-.23.47-.52.29s-.38-.25-.58-.39l-.49.32a.7.7,0,0,1-.16.1.32.32,0,0,1-.5-.29c0-.23,0-.46,0-.72H2.92a1.39,1.39,0,0,1-1.24-.69,1,1,0,0,1-.16-.47,5.87,5.87,0,0,1,0-.84.25.25,0,0,1,.29-.25H3.64a.51.51,0,0,0,0-.34V1.48A2.08,2.08,0,0,1,3.76.93,1.35,1.35,0,0,1,5,0h9.13A1.36,1.36,0,0,1,15.5,1.34c0,.18,0,.36,0,.53s-.09.33-.35.34H13.31V8.45a2.08,2.08,0,0,1,0,.25A.29.29,0,0,1,13,9a.33.33,0,0,1-.28-.28,1.61,1.61,0,0,1,0-.22c0-2,0-4,0-6v-.3H6.36c-.41,0-.51-.07-.49-.5a2.87,2.87,0,0,0,0-.52.81.81,0,0,0-.69-.6A.83.83,0,0,0,4.42,1a1.1,1.1,0,0,0-.15.62v9.61a1.66,1.66,0,0,1-.21,1.07c.23.06,4.54.08,5,0v-.87c-.11-.14-.24-.28-.35-.45A1.94,1.94,0,0,1,9.88,8a1.82,1.82,0,0,1,1.91.66,1.78,1.78,0,0,1,.33,1.91,1.38,1.38,0,0,1-.57.79A1.25,1.25,0,0,0,11.38,11.52ZM6.45,1.63h8.44s0,0,0,0c0-.68-.26-.87-.69-1a1.56,1.56,0,0,0-.31,0H6.21A1.67,1.67,0,0,1,6.45,1.63Zm5.17,8.28A1.31,1.31,0,0,0,10.3,8.56,1.3,1.3,0,0,0,9,9.91a1.33,1.33,0,0,0,2.65,0Zm-9.51,1.4a.88.88,0,0,0,.4.93.9.9,0,0,0,.88-.1.86.86,0,0,0,.25-.83Zm7.6,1.82.31-.2a.29.29,0,0,1,.39,0c.1.08.21.14.33.23v-.67a3.61,3.61,0,0,0,0-.66l-1-.06Z"/><path class="cls-1" d="M8.5,5.44h3.24a1.61,1.61,0,0,1,.22,0,.32.32,0,0,1,.29.31.37.37,0,0,1-.3.31,1.2,1.2,0,0,1-.19,0H5.32A1.14,1.14,0,0,1,5,6a.26.26,0,0,1-.19-.29A.31.31,0,0,1,5,5.44a2.09,2.09,0,0,1,.25,0Z"/><path class="cls-1" d="M8.47,7.13H5.17c-.17,0-.32,0-.38-.19A.26.26,0,0,1,5,6.56h7c.18,0,.29.12.28.26a.29.29,0,0,1-.28.31H8.47Z"/><path class="cls-1" d="M8.61,3.88H7.54a.86.86,0,0,1-.27,0c-.16-.07-.23-.19-.2-.31a.43.43,0,0,1,.31-.27h2.5a.27.27,0,0,1,.27.17.27.27,0,0,1-.12.39,1,1,0,0,1-.3.07Z"/><path class="cls-1" d="M7.55,10.12c0,.24-.22.31-.44.31H5.16a.45.45,0,0,1-.31-.11A.3.3,0,0,1,5,9.82a.81.81,0,0,1,.22,0H7.11A.38.38,0,0,1,7.55,10.12Z"/><path class="cls-1" d="M7.55,9c-.09.28-.11.3-.39.3H5.1a.29.29,0,0,1-.31-.2A.26.26,0,0,1,5,8.74H7.19C7.38,8.73,7.52,8.78,7.55,9Z"/><path class="cls-1" d="M6.15,3.88c-.26-.12-.31-.21-.27-.4a.27.27,0,0,1,.29-.22.28.28,0,0,1,.27.25.33.33,0,0,1-.06.22A.83.83,0,0,1,6.15,3.88Z"/><path class="cls-1" d="M13,9.61a.26.26,0,0,1,.28.3.27.27,0,0,1-.3.28.28.28,0,0,1-.27-.3A.27.27,0,0,1,13,9.61Z"/><path class="cls-1" d="M3.64,11.31a.86.86,0,0,1-.25.83.9.9,0,0,1-.88.1.88.88,0,0,1-.4-.93"/></svg>