<svg id="Capa_1" data-name="Capa 1" xmlns="http://www.w3.org/2000/svg" viewBox="0 0 17 14"><defs><style>.cls-1{fill:#36c;}</style></defs><title>men-institucion-superior</title><path class="cls-1" d="M12.44,4.7H8.5a.27.27,0,0,1,0-.54h3.94a.27.27,0,0,1,0,.54Z"/><path class="cls-1" d="M11.29,6a.3.3,0,0,1-.2-.08.32.32,0,0,1-.08-.2.27.27,0,0,1,.08-.19.3.3,0,0,1,.2-.08.27.27,0,0,1,.27.27.32.32,0,0,1-.08.2A.27.27,0,0,1,11.29,6Z"/><path class="cls-1" d="M8.5,1.72a.27.27,0,1,1,.19-.08A.27.27,0,0,1,8.5,1.72Z"/><path class="cls-1" d="M10.14,6H8.5a.28.28,0,0,1-.27-.28.27.27,0,0,1,.27-.27h1.64a.27.27,0,0,1,.27.27A.28.28,0,0,1,10.14,6Z"/><path class="cls-1" d="M12.44,7.66H8.5a.28.28,0,0,1-.27-.28.27.27,0,0,1,.27-.27h3.94a.27.27,0,0,1,.27.27A.28.28,0,0,1,12.44,7.66Z"/><path class="cls-1" d="M11.29,9a.3.3,0,0,1-.2-.08A.27.27,0,0,1,11,8.7a.28.28,0,0,1,.08-.2.3.3,0,0,1,.2-.08.27.27,0,0,1,.19.08.28.28,0,0,1,.08.2.27.27,0,0,1-.27.27Z"/><path class="cls-1" d="M10.14,9H8.5a.28.28,0,0,1,0-.55h1.64a.28.28,0,0,1,0,.55Z"/><path class="cls-1" d="M12.44,10.61H8.5a.28.28,0,0,1,0-.55h3.94a.28.28,0,0,1,0,.55Z"/><path class="cls-1" d="M11.29,11.92a.3.3,0,0,1-.2-.08.27.27,0,0,1,0-.38.26.26,0,0,1,.2-.08.24.24,0,0,1,.19.08.27.27,0,0,1-.19.46Z"/><path class="cls-1" d="M10.14,11.92H8.5a.27.27,0,0,1-.27-.27.28.28,0,0,1,.27-.28h1.64a.28.28,0,0,1,.27.28A.27.27,0,0,1,10.14,11.92Z"/><path class="cls-1" d="M13,1.07H10.88A1.68,1.68,0,0,0,9.72.6H9.48a1.1,1.1,0,0,0-2,0H7.28a1.68,1.68,0,0,0-1.16.47H4A1.33,1.33,0,0,0,2.7,2.4V12.67A1.34,1.34,0,0,0,4,14H13a1.34,1.34,0,0,0,1.34-1.33V2.4A1.33,1.33,0,0,0,13,1.07Zm-5.68.08h.43A.27.27,0,0,0,8,1,.55.55,0,0,1,9,1a.27.27,0,0,0,.26.2h.43a1.14,1.14,0,0,1,1.13,1H6.15A1.14,1.14,0,0,1,7.28,1.15Zm6.47,11.52a.78.78,0,0,1-.79.78H4a.78.78,0,0,1-.79-.78V2.4A.79.79,0,0,1,4,1.61h1.7a1.71,1.71,0,0,0-.14.67v.18a.27.27,0,0,0,.28.27h5.24a.27.27,0,0,0,.28-.27V2.28a1.71,1.71,0,0,0-.14-.67H13a.79.79,0,0,1,.79.79Z"/><path class="cls-1" d="M6.37,4.09,5.21,5.26,4.85,4.9a.28.28,0,0,0-.39.39L5,5.84a.32.32,0,0,0,.2.08.27.27,0,0,0,.19-.08L6.76,4.48a.28.28,0,0,0-.39-.39Z"/><path class="cls-1" d="M6.09,10.06H4.78a.27.27,0,0,0-.27.28v1.31a.27.27,0,0,0,.27.27H6.09a.28.28,0,0,0,.28-.27V10.34A.28.28,0,0,0,6.09,10.06Zm-.27,1.31H5.05v-.76h.77Z"/><path class="cls-1" d="M6.09,7.11H4.78a.27.27,0,0,0-.27.27V8.7A.27.27,0,0,0,4.78,9H6.09a.28.28,0,0,0,.28-.27V7.38A.28.28,0,0,0,6.09,7.11ZM5.82,8.42H5.05V7.66h.77Z"/></svg>