<svg id="Capa_1" data-name="Capa 1" xmlns="http://www.w3.org/2000/svg" viewBox="0 0 17 14"><defs><style>.cls-1{fill:#fff;fill-rule:evenodd;}</style></defs><title>men-instagram</title><path class="cls-1" d="M13.43.3H3.57A1.6,1.6,0,0,0,1.79,2.1v9.84A1.57,1.57,0,0,0,3.51,13.7h9.92a1.6,1.6,0,0,0,1.78-1.77V2.06A1.6,1.6,0,0,0,13.43.3ZM12.35,1.83c1.33,0,1.33,0,1.33,1.33s0,1.29-1.31,1.29-1.32,0-1.32-1.32S11.05,1.83,12.35,1.83ZM8.51,4.4A2.6,2.6,0,1,1,5.9,7,2.65,2.65,0,0,1,8.51,4.4Zm5.17,7c0,.63-.18.8-.8.8H4.11c-.61,0-.78-.17-.78-.8,0-1.62,0-3.26,0-4.89,0-.46.12-.56.55-.55.61,0,.62,0,.56.63a4.1,4.1,0,0,0,8,1.6,4.08,4.08,0,0,0,.09-1.93c0-.23,0-.27.22-.27.93-.08.93-.09.93.87Z"/></svg>