<svg id="Capa_1" data-name="Capa 1" xmlns="http://www.w3.org/2000/svg" viewBox="0 0 18.57 14.25"><defs><style>.cls-1{fill:gray;}</style></defs><title>men-view</title><path class="cls-1" d="M18.11,6.73a13.68,13.68,0,0,0-2.43-2.26A10.82,10.82,0,0,0,9.33,2.2,10.84,10.84,0,0,0,3,4.47,13,13,0,0,0,.56,6.73l-.32.39.32.4A13,13,0,0,0,3,9.78a10.84,10.84,0,0,0,6.35,2.27,10.82,10.82,0,0,0,6.35-2.27,13.68,13.68,0,0,0,2.43-2.26l.31-.4ZM9.33,10.57A3.45,3.45,0,0,1,5.88,7.12,3.56,3.56,0,0,1,6,6.26l-.78-.13a4.07,4.07,0,0,0-.12,1,4.24,4.24,0,0,0,1.36,3.12A11.31,11.31,0,0,1,3.77,8.78,13.3,13.3,0,0,1,1.9,7.12,14,14,0,0,1,3.77,5.47,11.31,11.31,0,0,1,6.45,4l.53.6a3.4,3.4,0,0,1,2.35-.93,3.45,3.45,0,1,1,0,6.89ZM14.9,8.78a11.39,11.39,0,0,1-2.69,1.46,4.23,4.23,0,0,0,0-6.23A11.39,11.39,0,0,1,14.9,5.47a13.82,13.82,0,0,1,1.86,1.65A13.1,13.1,0,0,1,14.9,8.78Z"/><path class="cls-1" d="M7.14,6.45a2.2,2.2,0,0,0-.1.68,2.3,2.3,0,1,0,2.29-2.3,2.34,2.34,0,0,0-1.59.64L8.87,6.75Z"/></svg>