<svg id="Capa_1" data-name="Capa 1" xmlns="http://www.w3.org/2000/svg" viewBox="0 0 17 14"><defs><style>.cls-1{fill:#36c;}</style></defs><title>men-importante</title><path class="cls-1" d="M11.65,1.39a.27.27,0,1,0,.27-.47.27.27,0,1,0-.27.47Z"/><path class="cls-1" d="M8.5.55A.28.28,0,0,0,8.77.27a.27.27,0,1,0-.54,0A.28.28,0,0,0,8.5.55Z"/><path class="cls-1" d="M8.5,7.83a.27.27,0,0,0,.27-.27.27.27,0,1,0-.54,0A.27.27,0,0,0,8.5,7.83Z"/><path class="cls-1" d="M5.35,1.39A.27.27,0,1,0,5,1.29.27.27,0,0,0,5.35,1.39Z"/><path class="cls-1" d="M8.5,2.74a.27.27,0,0,0,.27-.28V1.37a.27.27,0,1,0-.54,0V2.46A.27.27,0,0,0,8.5,2.74Z"/><path class="cls-1" d="M6.07,3.19a.28.28,0,0,0,.24.14.37.37,0,0,0,.14,0,.29.29,0,0,0,.1-.38L6,2a.27.27,0,0,0-.38-.1.27.27,0,0,0-.1.37Z"/><path class="cls-1" d="M10.55,3.29a.37.37,0,0,0,.14,0,.28.28,0,0,0,.24-.14l.55-.95a.27.27,0,0,0-.1-.37A.27.27,0,0,0,11,2l-.55.94A.29.29,0,0,0,10.55,3.29Z"/><path class="cls-1" d="M14.25,7.56h0v0h0l-1.64-2.9h0v0h0l0,0h0l0,0h0l0,0h0l0,0H4.56l0,0h0l0,0h0l0,0h0l0,0h0l0,0h0L2.79,7.42h0l5.51,6.17,0,0h0l0,0h0l0,0h.17l0,0h0l0,0h0l0,0,5.44-6.17h.07ZM4.63,5.27l.86,2h-2Zm8.88,2h-2l.84-2Zm-6.11,0H6.51l2-2.22,2,2.22H9.6a.28.28,0,0,0-.28.28.27.27,0,0,0,.28.27h1.11L8.53,13,6.32,7.83H7.4a.27.27,0,0,0,.28-.27A.28.28,0,0,0,7.4,7.28ZM11,7.05,9.12,4.93h2.8Zm-5,0L5.08,4.93H7.89Zm-.27.78L7.63,12.3l-4-4.47Zm5.58,0h2.07L9.43,12.3Z"/></svg>