<?xml version="1.0" encoding="utf-8"?>
<!-- Generator: Adobe Illustrator 22.1.0, SVG Export Plug-In . SVG Version: 6.00 Build 0)  -->
<svg version="1.1" id="Capa_1" xmlns="http://www.w3.org/2000/svg" xmlns:xlink="http://www.w3.org/1999/xlink" x="0px" y="0px"
	 viewBox="0 0 17 14" style="enable-background:new 0 0 17 14;" xml:space="preserve">
<style type="text/css">
	.st0{fill:#3366CC;}
</style>
<title>men-declaracion-manifiesto</title>
<g>
	<path class="st0" d="M13.1,2.7C13.1,2.7,13.1,2.7,13.1,2.7C13.1,2.7,13.1,2.7,13.1,2.7C13.1,2.7,13.1,2.7,13.1,2.7
		C13.1,2.7,13.1,2.7,13.1,2.7C13.1,2.7,13.1,2.6,13.1,2.7c0-0.1,0-0.1,0-0.1c0,0,0,0,0,0c0,0,0,0,0,0c0,0,0,0,0,0c0,0,0,0,0,0
		l-2.5-2.5c0,0,0,0,0,0c0,0,0,0,0,0c0,0,0,0,0,0c0,0,0,0,0,0c0,0,0,0,0,0c0,0,0,0,0,0c0,0,0,0,0,0c0,0,0,0,0,0c0,0,0,0,0,0
		c0,0,0,0,0,0c0,0,0,0,0,0H4.2C4,0,3.9,0.1,3.9,0.3V12c0,0.2,0.1,0.3,0.3,0.3h4.1v1.5c0,0.1,0.1,0.2,0.1,0.2c0.1,0,0.2,0,0.3,0
		l1-0.7l1,0.7c0,0,0.1,0,0.1,0c0,0,0.1,0,0.1,0c0.1,0,0.1-0.1,0.1-0.2v-1.5h1.6c0.2,0,0.3-0.1,0.3-0.3L13.1,2.7
		C13.1,2.7,13.1,2.7,13.1,2.7z M10.6,0.9l1.5,1.5h-1.5V0.9z M8.1,8.4c0-0.1-0.1-0.1-0.1-0.2c0,0,0.1-0.1,0.1-0.1
		C8.3,8.1,8.4,8,8.5,7.9c0.1-0.1,0.1-0.2,0.1-0.4c0,0,0-0.1,0.1-0.2c0,0,0,0,0.1,0c0,0,0.1,0,0.1,0c0,0,0.1,0,0.1,0
		c0.1,0,0.2,0,0.3,0c0.1,0,0.2-0.1,0.3-0.2c0,0,0.1-0.1,0.2-0.1c0,0,0.1,0.1,0.2,0.1c0.1,0.1,0.2,0.2,0.3,0.2c0.1,0,0.2,0,0.3,0
		c0,0,0.1,0,0.1,0c0,0,0.1,0,0.1,0c0,0,0.1,0,0.1,0c0,0,0,0.1,0.1,0.2c0,0.1,0.1,0.2,0.1,0.4C11,8,11.2,8.1,11.3,8.2
		c0,0,0.1,0.1,0.1,0.1c0,0,0,0.1-0.1,0.2c0,0.1-0.1,0.2-0.1,0.4c0,0.1,0,0.3,0.1,0.4c0,0.1,0.1,0.1,0.1,0.2c0,0-0.1,0.1-0.1,0.1
		C11.2,9.5,11,9.6,11,9.7c-0.1,0.1-0.1,0.2-0.1,0.4c0,0,0,0.1-0.1,0.2c0,0,0,0-0.1,0c0,0-0.1,0-0.1,0c0,0-0.1,0-0.1,0
		c-0.1,0-0.2,0-0.3,0c-0.1,0-0.2,0.1-0.3,0.2c0,0-0.1,0.1-0.2,0.1c0,0-0.1-0.1-0.2-0.1c-0.1-0.1-0.2-0.2-0.3-0.2c-0.1,0-0.2,0-0.3,0
		c0,0-0.1,0-0.1,0c0,0-0.1,0-0.1,0c0,0-0.1,0-0.1,0c0,0,0-0.1-0.1-0.2c0-0.1-0.1-0.2-0.1-0.4C8.4,9.6,8.3,9.5,8.2,9.5
		c0,0-0.1-0.1-0.1-0.1c0,0,0-0.1,0.1-0.2c0-0.1,0.1-0.2,0.1-0.4C8.2,8.7,8.2,8.6,8.1,8.4z M10.7,13.2l-0.8-0.5
		c-0.1-0.1-0.2-0.1-0.3,0l-0.8,0.5v-2.5c0,0,0.1,0,0.1,0c0,0,0.1,0,0.1,0c0,0,0.1,0,0.1,0c0,0,0.1,0.1,0.1,0.1
		c0.1,0.1,0.3,0.2,0.5,0.2c0.2,0,0.4-0.1,0.5-0.2c0.1,0,0.1-0.1,0.1-0.1c0,0,0,0,0.1,0c0,0,0.1,0,0.1,0c0,0,0.1,0,0.1,0L10.7,13.2
		L10.7,13.2z M11.2,11.7v-1.2c0.1-0.1,0.1-0.2,0.1-0.4c0-0.1,0-0.1,0.1-0.2c0,0,0.1-0.1,0.1-0.1c0.1-0.1,0.3-0.2,0.4-0.4
		c0.1-0.2,0-0.4-0.1-0.5c0-0.1-0.1-0.1-0.1-0.2c0,0,0-0.1,0.1-0.2c0.1-0.2,0.1-0.3,0.1-0.5c-0.1-0.2-0.2-0.3-0.4-0.4
		c-0.1,0-0.1-0.1-0.1-0.1c0,0,0-0.1-0.1-0.2c0-0.2-0.1-0.3-0.3-0.5c-0.1-0.1-0.3-0.1-0.4-0.1c0,0-0.1,0-0.1,0c0,0-0.1,0-0.1,0
		c0,0-0.1,0-0.1,0c0,0-0.1-0.1-0.1-0.1C10.1,6.7,10,6.5,9.7,6.5c-0.2,0-0.4,0.1-0.5,0.2c-0.1,0-0.1,0.1-0.1,0.1c0,0,0,0-0.1,0
		c0,0-0.1,0-0.1,0c0,0-0.1,0-0.1,0c-0.1,0-0.3,0-0.4,0.1C8.2,7.1,8.2,7.3,8.1,7.4c0,0.1,0,0.1-0.1,0.2c0,0-0.1,0.1-0.1,0.1
		C7.8,7.8,7.6,7.9,7.6,8.1c-0.1,0.2,0,0.4,0.1,0.5c0,0.1,0.1,0.1,0.1,0.2c0,0,0,0.1-0.1,0.2C7.6,9.2,7.5,9.3,7.6,9.5
		c0.1,0.2,0.2,0.3,0.4,0.4C8,10,8.1,10,8.1,10c0,0,0,0.1,0.1,0.2c0,0.1,0.1,0.2,0.1,0.4v1.2H4.4V0.5h5.7v2.2c0,0.2,0.1,0.3,0.3,0.3
		h2.2v8.7H11.2z"/>
	<path class="st0" d="M5.5,3H9c0.2,0,0.3-0.1,0.3-0.3S9.2,2.5,9,2.5H5.5c-0.2,0-0.3,0.1-0.3,0.3S5.3,3,5.5,3z"/>
	<path class="st0" d="M11.5,3.9h-6C5.3,3.9,5.2,4,5.2,4.1c0,0.2,0.1,0.3,0.3,0.3h6c0.2,0,0.3-0.1,0.3-0.3C11.8,4,11.7,3.9,11.5,3.9z
		"/>
	<path class="st0" d="M10.4,5.2H5.5c-0.2,0-0.3,0.1-0.3,0.3c0,0.2,0.1,0.3,0.3,0.3h4.9c0.2,0,0.3-0.1,0.3-0.3
		C10.7,5.4,10.6,5.2,10.4,5.2z"/>
	<path class="st0" d="M11.5,5.2c-0.2,0-0.3,0.1-0.3,0.3c0,0.2,0.1,0.3,0.3,0.3c0.2,0,0.3-0.1,0.3-0.3C11.8,5.4,11.7,5.2,11.5,5.2z"
		/>
</g>
</svg>
