<svg xmlns="http://www.w3.org/2000/svg" viewBox="0 0 294.12 252.85"><defs><style>.cls-1{fill:#383838;}</style></defs><title>alerta</title><g id="Capa_2" data-name="Capa 2"><g id="Capa_1-2" data-name="Capa 1"><path class="cls-1" d="M186.64,40.64c-5.47-9.06-10.8-18.21-16.43-27.17-6.32-10-15.4-14.86-27.4-13.12-9.24,1.34-15.28,7.07-19.94,14.8Q76.63,92,30.26,168.85,17.18,190.53,4.17,212.24C0,219.18-1.28,226.63,1.4,234.37c4.16,12,13.65,18.46,26.87,18.47H265.81c8.12,0,15.46-2.15,21-8.4,8.88-10,9.62-21.57,2.32-33.69Q237.91,125.7,186.64,40.64ZM274,229.73c-1.84,3.38-5,3.93-8.44,3.93q-59.25,0-118.48,0H29.24a24.78,24.78,0,0,1-3-.07c-6.12-.74-8.81-6.12-5.64-11.4Q38.75,192,56.93,161.86,98,93.58,139.11,25.3c.41-.68.81-1.37,1.25-2,3.73-5.64,10-5.61,13.57.21C162,36.78,170,50.15,178,63.49q47.36,78.67,94.74,157.32C274.51,223.69,275.83,226.45,274,229.73Z"/><path class="cls-1" d="M138.45,166.87c2.57,3,8.59,4,13.42,2.22,4-1.45,5.38-3.56,5.56-8.52q.62-17.37,1.25-34.73h.2c.36-11.87.79-23.75,1-35.63.12-5.78-2.66-9.21-8.32-10.92-9.31-2.81-17.62,2.52-17.34,11.35.77,24,1.7,47.91,2.53,71.86A6.73,6.73,0,0,0,138.45,166.87Z"/><path class="cls-1" d="M147.21,182.18a13.72,13.72,0,0,0,.06,27.43c7.2,0,13.46-6.24,13.59-13.62A13.83,13.83,0,0,0,147.21,182.18Z"/></g></g></svg>