<svg id="Capa_1" data-name="Capa 1" xmlns="http://www.w3.org/2000/svg" viewBox="0 0 17 14"><defs><style>.cls-1{fill:#fff;}</style></defs><title>men-borrador</title><path class="cls-1" d="M6.79,13.45a.54.54,0,0,1-.55.55H4.41a2.19,2.19,0,0,1-2.18-2.19V2.19A2.19,2.19,0,0,1,4.41,0h6.73a2.2,2.2,0,0,1,2.19,2.19V5.55a.55.55,0,0,1-1.1,0V2.19a1.09,1.09,0,0,0-1.09-1.1H4.41a1.09,1.09,0,0,0-1.09,1.1v9.62a1.09,1.09,0,0,0,1.09,1.1H6.24A.54.54,0,0,1,6.79,13.45Zm3.8-10.17H5a.55.55,0,0,0,0,1.1h5.63a.55.55,0,1,0,0-1.1ZM11.14,6a.55.55,0,0,0-.55-.55H5A.55.55,0,1,0,5,6.56h5.63A.55.55,0,0,0,11.14,6ZM5,7.66A.55.55,0,1,0,5,8.75H8.38a.55.55,0,1,0,0-1.09Zm9.33,2.58-3,3a.58.58,0,0,1-.24.14L8.85,14,8.7,14a.59.59,0,0,1-.39-.16.56.56,0,0,1-.13-.55l.65-2.15A.79.79,0,0,1,9,10.91l3-3a1.64,1.64,0,0,1,2.32,2.32Zm-1.65.1-.77-.77-2,2-.32,1.07,1.11-.31Zm.88-1.65a.55.55,0,0,0-.77,0l-.11.11.77.77.11-.11A.55.55,0,0,0,13.52,8.69Z"/></svg>