<svg id="Capa_1" data-name="Capa 1" xmlns="http://www.w3.org/2000/svg" viewBox="0 0 17 14"><defs><style>.cls-1{fill:#36c;}</style></defs><title>men-verificacion</title><path class="cls-1" d="M15.42,3a.14.14,0,0,0,0-.06v0a.18.18,0,0,0-.05-.07L12.55.07a.18.18,0,0,0-.07,0H5.39A1.17,1.17,0,0,0,4.22,1.17V2.88a4.43,4.43,0,0,0,0,8.1v1.85A1.17,1.17,0,0,0,5.39,14h8.86a1.17,1.17,0,0,0,1.17-1.17V3Zm-.8-.22H12.85a.23.23,0,0,1-.23-.23V.8ZM2.05,6.93a4,4,0,0,1,1.16-2.8A3.92,3.92,0,0,1,6,3h.39A4,4,0,0,1,9.94,6.34a5.63,5.63,0,0,1,.05.59A3.93,3.93,0,0,1,9.38,9a4,4,0,0,1-1.25,1.25A4,4,0,0,1,2.05,6.93Zm6.68,3.51.09-.08a3.11,3.11,0,0,0,.33-.29q.16-.16.3-.33l.07-.1.09-.11,2,2a.7.7,0,1,1-1,1l-2-2Zm5.52,3.09H5.39a.7.7,0,0,1-.7-.7V11.16l0,0,.11,0,.27.06.13,0,.27,0,.12,0,.39,0a4.47,4.47,0,0,0,2.2-.59l2.06,2.06a1.16,1.16,0,0,0,2-.5,1.15,1.15,0,0,0-.34-1.15L9.87,9.13a4.46,4.46,0,0,0,.58-2.2c0-.15,0-.29,0-.44A4.44,4.44,0,0,0,6,2.5l-.39,0H5.51l-.27,0-.13,0-.26.07-.12,0h0V1.17a.7.7,0,0,1,.7-.7h6.76v2.1a.71.71,0,0,0,.7.7H15v9.56A.7.7,0,0,1,14.25,13.53Z"/><path class="cls-1" d="M11.22,1.63A.23.23,0,0,0,11,1.4H5.85a.23.23,0,0,0-.23.23.23.23,0,0,0,.23.24H11A.23.23,0,0,0,11.22,1.63Z"/><path class="cls-1" d="M13.79,5.6H11a.23.23,0,0,0-.24.23.24.24,0,0,0,.24.24h2.8A.23.23,0,0,0,14,5.83.23.23,0,0,0,13.79,5.6Z"/><path class="cls-1" d="M13.79,7H11a.23.23,0,0,0-.24.23.24.24,0,0,0,.24.24h2.8A.23.23,0,0,0,14,7.23.23.23,0,0,0,13.79,7Z"/><path class="cls-1" d="M14,8.63a.23.23,0,0,0-.23-.23h-3a.23.23,0,0,0-.23.23.23.23,0,0,0,.23.24h3A.23.23,0,0,0,14,8.63Z"/><path class="cls-1" d="M14,10a.23.23,0,0,0-.23-.23h-2.1a.23.23,0,0,0-.24.23.24.24,0,0,0,.24.24h2.1A.23.23,0,0,0,14,10Z"/><path class="cls-1" d="M11.22,3A.23.23,0,0,0,11,2.8H9.12A.23.23,0,0,0,8.89,3a.23.23,0,0,0,.23.24H11A.23.23,0,0,0,11.22,3Z"/><path class="cls-1" d="M14,4.43a.23.23,0,0,0-.23-.23h-3.5a.23.23,0,0,0-.24.23.24.24,0,0,0,.24.24h3.5A.23.23,0,0,0,14,4.43Z"/><path class="cls-1" d="M5.15,5.83H6.79a.23.23,0,0,0,0-.46H5.15a.23.23,0,0,0,0,.46Z"/><path class="cls-1" d="M8,7a.23.23,0,0,0-.23-.23H4.22a.23.23,0,0,0,0,.46h3.5A.23.23,0,0,0,8,7Z"/><path class="cls-1" d="M6.79,8.17H5.15a.23.23,0,0,0,0,.46H6.79a.23.23,0,0,0,0-.46Z"/><path class="cls-1" d="M7.68,10A3.39,3.39,0,0,0,9,8.69l.06-.1s0,0,0-.05a1.86,1.86,0,0,0,.1-.2,1.8,1.8,0,0,0,.08-.21.14.14,0,0,0,0-.06A3.5,3.5,0,0,0,2.93,5.28a3.54,3.54,0,0,0-.41,1.65A3.49,3.49,0,0,0,7.68,10ZM4.56,9.59a3.08,3.08,0,0,1-.69-.51,2.89,2.89,0,0,1-.38-.47l-.15-.25a3,3,0,1,1,5.35,0h0A3,3,0,0,1,7.46,9.6a3,3,0,0,1-2.9,0Z"/><path class="cls-1" d="M14.25,11.2a.23.23,0,0,0-.23.23v.94a.23.23,0,0,1-.23.23h-.94a.23.23,0,0,0-.23.23.23.23,0,0,0,.23.24h.94a.71.71,0,0,0,.7-.7v-.94A.23.23,0,0,0,14.25,11.2Z"/></svg>