<svg id="Capa_1" data-name="Capa 1" xmlns="http://www.w3.org/2000/svg" viewBox="0 0 17 14"><defs><style>.cls-1{fill:#fff;}</style></defs><title>men-salir</title><path class="cls-1" d="M5.32,10.53h4.1V3.41a1.22,1.22,0,0,1,.69-1.1L12.78,1H5.32v2.9h-1V0H15.13A1.24,1.24,0,0,1,16,.35a1.22,1.22,0,0,1,.37.88v9.36a1.25,1.25,0,0,1-.69,1.11l-.33.15V1.23A.2.2,0,0,0,15.08,1L10.56,3.22a.21.21,0,0,0-.12.19v9.36a.2.2,0,0,0,.29.19l3.63-1.75v1.13l-3.19,1.54A1.21,1.21,0,0,1,10,13.81a1.24,1.24,0,0,1-.57-1V11.55H4.3V7.63h1Zm0,0"/><path class="cls-1" d="M6.82,5.27l-1-.89.66-.77L9,5.78,6.45,8l-.66-.78,1-.89H.61v-1Zm0,0"/></svg>