<?xml version="1.0" encoding="utf-8"?>
<!-- Generator: Adobe Illustrator 22.1.0, SVG Export Plug-In . SVG Version: 6.00 Build 0)  -->
<svg version="1.1" id="Capa_1" xmlns="http://www.w3.org/2000/svg" xmlns:xlink="http://www.w3.org/1999/xlink" x="0px" y="0px"
	 viewBox="0 0 17 14" style="enable-background:new 0 0 17 14;" xml:space="preserve">
<style type="text/css">
	.st0{fill:#3366CC;stroke:#3366CC;stroke-width:5.000000e-02;stroke-miterlimit:10;}
</style>
<title>men-declaracion-manifiesto</title>
<g>
	<path class="st0" d="M14.3,1.1H2.7C2.3,1.1,2,1.4,2,1.8v2.5c0,0.1,0.1,0.2,0.2,0.2s0.2-0.1,0.2-0.2V1.8c0-0.2,0.1-0.3,0.3-0.3h11.5
		c0.2,0,0.3,0.1,0.3,0.3v7.7c0,0.2-0.1,0.3-0.3,0.3h-4c0-0.1,0-0.2,0-0.3c0-0.1,0-0.2,0-0.3h2.5c0.1,0,0.2-0.1,0.2-0.2
		c0-0.5,0.4-0.9,0.9-0.9c0.1,0,0.2-0.1,0.2-0.2V4.7c0-0.1-0.1-0.2-0.2-0.2s-0.2,0.1-0.2,0.2v3.1c-0.5,0.1-1,0.5-1.1,1.1h-2.4
		C9.9,8.2,9.3,7.7,8.5,7.7S7.1,8.2,6.8,8.9H4.4c-0.1-0.5-0.5-1-1.1-1.1V3.5c0.5-0.1,1-0.5,1.1-1.1h8.2c0.1,0.5,0.5,1,1.1,1.1v0.4
		C13.7,4,13.8,4,13.9,4C14,4,14.1,4,14.1,3.8V3.3c0-0.1-0.1-0.2-0.2-0.2c-0.5,0-0.9-0.4-0.9-0.9C13,2.1,12.9,2,12.8,2H4.2
		C4.1,2,4,2.1,4,2.2c0,0.5-0.4,0.9-0.9,0.9C3,3.1,2.9,3.2,2.9,3.3V8c0,0.1,0.1,0.2,0.2,0.2C3.6,8.2,4,8.6,4,9.1
		c0,0.1,0.1,0.2,0.2,0.2h2.5c0,0.1,0,0.2,0,0.3s0,0.2,0,0.3h-4c-0.2,0-0.3-0.1-0.3-0.3V5.3c0-0.1-0.1-0.2-0.2-0.2S2,5.1,2,5.3v4.2
		c0,0.4,0.3,0.7,0.7,0.7h4.1c0.1,0.2,0.2,0.3,0.3,0.5v2c0,0.1,0,0.1,0.1,0.2s0.1,0,0.2,0l1.2-0.5l1.2,0.5c0,0,0,0,0.1,0
		c0,0,0.1,0,0.1,0c0.1,0,0.1-0.1,0.1-0.2v-0.5C9.9,12,9.9,12,9.8,12c-0.1,0-0.2,0.1-0.2,0.2v0.3l-1-0.4c0,0-0.1,0-0.1,0l-1,0.4V11
		c0.3,0.2,0.7,0.3,1.1,0.3s0.8-0.1,1.1-0.3v0.2c0,0.1,0.1,0.2,0.2,0.2c0.1,0,0.2-0.1,0.2-0.2v-0.6c0.1-0.1,0.2-0.3,0.3-0.5h4.1
		c0.4,0,0.7-0.3,0.7-0.7V1.8C15,1.4,14.7,1.1,14.3,1.1z M8.5,11c-0.8,0-1.4-0.6-1.4-1.4s0.6-1.4,1.4-1.4s1.4,0.6,1.4,1.4
		S9.3,11,8.5,11z"/>
	<path class="st0" d="M10.2,3.6c0.1,0,0.2-0.1,0.2-0.2s-0.1-0.2-0.2-0.2H6.8c-0.1,0-0.2,0.1-0.2,0.2s0.1,0.2,0.2,0.2H10.2z"/>
	<path class="st0" d="M11.5,4.3H5.5c-0.1,0-0.2,0.1-0.2,0.2s0.1,0.2,0.2,0.2h5.9c0.1,0,0.2-0.1,0.2-0.2S11.6,4.3,11.5,4.3z"/>
	<path class="st0" d="M11.5,5.3H5.5c-0.1,0-0.2,0.1-0.2,0.2s0.1,0.2,0.2,0.2h5.9c0.1,0,0.2-0.1,0.2-0.2S11.6,5.3,11.5,5.3z"/>
	<path class="st0" d="M11.5,6.5h-0.9c-0.1,0-0.2,0.1-0.2,0.2s0.1,0.2,0.2,0.2h0.9c0.1,0,0.2-0.1,0.2-0.2S11.6,6.5,11.5,6.5z"/>
	<path class="st0" d="M5.5,6.5c-0.1,0-0.2,0.1-0.2,0.2s0.1,0.2,0.2,0.2h0.9c0.1,0,0.2-0.1,0.2-0.2S6.6,6.5,6.5,6.5H5.5z"/>
	<path class="st0" d="M8.5,8.5c-0.6,0-1,0.5-1,1s0.5,1,1,1s1-0.5,1-1S9.1,8.5,8.5,8.5z M8.5,10.2c-0.3,0-0.6-0.3-0.6-0.6
		c0-0.3,0.3-0.6,0.6-0.6s0.6,0.3,0.6,0.6C9.1,9.9,8.8,10.2,8.5,10.2z"/>
	<path class="st0" d="M7.8,6.7c0,0.4,0.3,0.7,0.7,0.7S9.2,7,9.2,6.7S8.9,6,8.5,6S7.8,6.3,7.8,6.7z M8.8,6.7c0,0.1-0.1,0.3-0.3,0.3
		S8.2,6.8,8.2,6.7s0.1-0.3,0.3-0.3S8.8,6.5,8.8,6.7z"/>
</g>
</svg>
