<svg id="Capa_1" data-name="Capa 1" xmlns="http://www.w3.org/2000/svg" viewBox="0 0 17 14.16"><defs><style>.cls-1{fill:#36c;stroke:#36c;stroke-miterlimit:10;stroke-width:0.16px;}</style></defs><title>men-politica</title><path class="cls-1" d="M12,8V1.54A1.46,1.46,0,0,0,10.54.08H4.13a.27.27,0,0,0-.21.09L1.59,2.5a.27.27,0,0,0-.09.2v9.92A1.46,1.46,0,0,0,3,14.08H10.5A1.49,1.49,0,0,0,12,12.61V12h-.6v.57a.87.87,0,0,1-.88.88H3a.88.88,0,0,1-.88-.88V2.81L4.23.65h6.32a.89.89,0,0,1,.88.88V8Z"/><path class="cls-1" d="M3.82.38V2.14a.29.29,0,0,1-.29.29H3V3h.57a.88.88,0,0,0,.88-.88V.38Z"/><path class="cls-1" d="M15.41,7.1l-.8-.81a.31.31,0,0,0-.42,0L9.75,10.73a.31.31,0,0,0,0,.42l.81.8a.27.27,0,0,0,.21.09A.27.27,0,0,0,11,12l4.44-4.44A.28.28,0,0,0,15.41,7.1Zm-4.64,4.23-.4-.39,4-4,.4.39Z"/><path class="cls-1" d="M10.25,11.45v-.57H9.68v.88a.29.29,0,0,0,.29.3h.85v-.61Z"/><path class="cls-1" d="M10,1.26H9.38v.57H10a.29.29,0,0,1,.29.29V2.7h.57V2.13A.86.86,0,0,0,10,1.26Z"/><path class="cls-1" d="M9.08,4.15H4.42a.29.29,0,0,0-.29.3V8.53a.27.27,0,0,0,.16.26l2,1a.82.82,0,0,0,.43.12h0a.88.88,0,0,0,.42-.11l2-1a.3.3,0,0,0,.17-.26V4.45A.3.3,0,0,0,9.08,4.15ZM8.77,8.36,6.88,9.3a.32.32,0,0,1-.3,0L4.7,8.36V4.76H8.77v3.6Z"/><path class="cls-1" d="M8,5.75,6.46,7.3l-.67-.67L5.38,7l.87.87A.29.29,0,0,0,6.46,8a.25.25,0,0,0,.2-.09L8.41,6.16Z"/><path class="cls-1" d="M7.32,11.45a.29.29,0,0,1-.3-.29v-.58H6.45v.57a.87.87,0,0,0,.87.88H9.07v-.58Z"/><rect class="cls-1" x="8.2" y="1.26" width="0.57" height="0.57"/></svg>