<svg id="Capa_1" data-name="Capa 1" xmlns="http://www.w3.org/2000/svg" viewBox="0 0 17 14"><defs><style>.cls-1{fill:#fff;}</style></defs><title>men-acepto</title><path class="cls-1" d="M8.5,0a7,7,0,1,0,7,7,7,7,0,0,0-7-7Zm0,12.58A5.58,5.58,0,1,1,14.08,7,5.6,5.6,0,0,1,8.5,12.58Zm0,0"/><path class="cls-1" d="M12.51,4.71l-.89-.9a.18.18,0,0,0-.24,0L7.15,8,5.62,6.51a.16.16,0,0,0-.24,0l-.89.89a.17.17,0,0,0,0,.24L7,10.19a.21.21,0,0,0,.12.05.17.17,0,0,0,.12-.05l5.24-5.25a.13.13,0,0,0,.05-.11.13.13,0,0,0-.05-.12Zm0,0"/></svg>