<svg id="Capa_1" data-name="Capa 1" xmlns="http://www.w3.org/2000/svg" viewBox="0 0 17 14"><defs><style>.cls-1{fill:#fff;}</style></defs><title>men-anterior</title><path class="cls-1" d="M10.5,9.52C9.71,8.71,8.93,7.9,8.15,7.08A1.07,1.07,0,0,1,8,6.92l.09-.11L13.27,1.6,14,.88,14.42.4a4.94,4.94,0,0,1,.41-.4,1.83,1.83,0,0,1,.43.31S17,1.72,17,1.73a.94.94,0,0,1-.1.1l-5,5.05.44.51.24.27,4.39,4.5a.33.33,0,0,1,.06.08.45.45,0,0,1-.07.07c-.65.56-1.31,1.11-2,1.65l-.06,0Zm-3.68,4.4C5.92,13,5,12.1,4.12,11.18l-3-3.12L.74,7.68C.5,7.43.27,7.18,0,6.92l0,0S6.84,0,6.87,0c.45.33.82.63,1.19.94l.6.49a1.43,1.43,0,0,1,.23.2.52.52,0,0,1,.1.11.79.79,0,0,1-.13.13L4.45,6.3,3.83,7,9,12.26l-.67.56c-.45.38-.9.76-1.36,1.13L6.91,14Z"/></svg>