<svg xmlns="http://www.w3.org/2000/svg" viewBox="0 0 236.38 319.42"><defs><style>.cls-1{fill:#1f55c0;}</style></defs><title>convalidar título</title><g id="Capa_2" data-name="Capa 2"><g id="Capa_1-2" data-name="Capa 1"><path class="cls-1" d="M228.47,204.44c-6.69-.42-11.76-5.46-11.66-12.15.07-4.6-3.18-9-8.71-8.4-2.21.25-2.7-.45-2.7-2.65.07-57.25,0-114.5.13-171.74,0-5.95-3-9.51-9.57-9.5Q102.57.2,9.17,0C3.72,0,0,3.29,0,9.24.16,52.12.08,95,.08,137.87s0,85.76,0,128.64a11.61,11.61,0,0,0,.29,3.61c1.2,3.72,3.89,5.44,8.71,5.44q56.56,0,113.13,0a3.64,3.64,0,0,1,3.61,2C136.12,294.25,150,307.4,166.52,318a7.55,7.55,0,0,0,8.95,0,154.88,154.88,0,0,0,19.84-15.25c26-24.22,38.46-54.58,41-89.48C236.74,207.87,233.8,204.78,228.47,204.44Zm-114.1,56.22q-48.48,0-96.95,0c-2.14,0-2.56-.61-2.56-2.62q.09-120.33,0-240.66c0-2.07.51-2.58,2.58-2.57q85.31.09,170.62,0c2.2,0,2.7.52,2.7,2.71q-.1,81.89,0,163.78c0,2.06-.5,2.58-2.57,2.57-18-.09-36,0-54.06-.09-3.79,0-6.69,1.1-8.28,4.71-.52,1.2-1.51.79-2.33.79q-20.65,0-41.29,0H41.63c-1.71,0-3.38.1-4.58,1.54s-1.86,3.3-.91,5.27a4.81,4.81,0,0,0,4.7,2.94c10,0,19.93,0,29.89,0H123.1c-2.48,3.45-5.48,5.32-9.26,5.31a7.91,7.91,0,0,0-8.08,9.87c.15.65.09,1.36.18,2,.11.88-.22,1.27-1.13,1.19-.53,0-1.06,0-1.6,0H42.31c-2.08,0-4.15,0-5.53,1.95a4.6,4.6,0,0,0-.64,4.92,4.92,4.92,0,0,0,4,2.95,19.09,19.09,0,0,0,2.51.06h62.5c1.09,0,2.16-.32,2.42,1.46a131.32,131.32,0,0,0,8.77,30.57c.14.34.21.71.38,1.27ZM220.84,220c-3.29,25.76-13.08,48.54-31.13,67.47a119.93,119.93,0,0,1-17.7,15c-1.11.79-1.62.15-2.33-.35a110.92,110.92,0,0,1-44.25-61.68,152.46,152.46,0,0,1-4.34-20.93,1.42,1.42,0,0,1,1.11-1.83A25.89,25.89,0,0,0,138.85,200c.42-1.41,1.22-1.41,2.32-1.41q14.94,0,29.88,0c9.89,0,19.77,0,29.66,0a2.16,2.16,0,0,1,2.51,1.82,26.22,26.22,0,0,0,16.09,17.13C220.67,218.06,221,218.64,220.84,220Z"/><path class="cls-1" d="M165.45,104.64a17.17,17.17,0,0,0-2.27,0H44.82c-1.37,0-2.74-.06-4.11,0a5,5,0,0,0-5,4.89,5.08,5.08,0,0,0,5.1,5c.45,0,.91,0,1.37,0h60.66v0h60.43a15.75,15.75,0,0,0,2.28-.06,5,5,0,0,0-.09-9.85Z"/><path class="cls-1" d="M165.46,132.87a20.19,20.19,0,0,0-2.06,0H75.15c-11.4,0-22.81,0-34.21,0a5,5,0,0,0-5.24,4.86,5,5,0,0,0,4.87,5c.45,0,.91,0,1.36,0H163.26a9.65,9.65,0,0,0,3.16-.29,4.94,4.94,0,0,0,3.37-5.31A4.88,4.88,0,0,0,165.46,132.87Z"/><path class="cls-1" d="M41.49,86.3H163.27c.68,0,1.37,0,2,0a4.88,4.88,0,0,0,4.48-4.4,4.82,4.82,0,0,0-3.7-5.28,13.11,13.11,0,0,0-2.94-.22H43.66c-1.06,0-2.13-.07-3.19,0a4.88,4.88,0,0,0-4.38,3.13C34.65,83.09,37.19,86.3,41.49,86.3Z"/><path class="cls-1" d="M41.38,58.06H163.15c.76,0,1.53,0,2.28,0a4.9,4.9,0,0,0,.56-9.66,15.24,15.24,0,0,0-3-.18H42.64a19.32,19.32,0,0,0-3,.17,4.45,4.45,0,0,0-3.64,3.07C34.72,55,37.17,58.06,41.38,58.06Z"/><path class="cls-1" d="M164.16,161.06q-30.66,0-61.34,0H42.39a21.68,21.68,0,0,0-2.28,0,4.88,4.88,0,0,0-.52,9.64,16.08,16.08,0,0,0,2.95.19H163.17a14.46,14.46,0,0,0,2.72-.16,4.84,4.84,0,0,0,3.57-6.64C168.48,161.8,166.61,161.05,164.16,161.06Z"/><path class="cls-1" d="M171.14,209.42a31.51,31.51,0,0,0-.32,63c17.2.15,31.8-14.34,31.75-31.5A31.63,31.63,0,0,0,171.14,209.42ZM185.49,238q-7.22,7.26-14.5,14.46c-2.58,2.55-5.19,2.55-7.77.06-2.4-2.32-4.73-4.71-7.1-7.06A4.55,4.55,0,0,1,154.7,242a4.71,4.71,0,0,1,2.77-4.36,4.59,4.59,0,0,1,5.3.63,33.53,33.53,0,0,1,3.24,3.18c.83.93,1.35.77,2.15-.05,3.4-3.46,6.85-6.88,10.3-10.29,2.38-2.35,5.17-2.54,7.25-.54S187.82,235.67,185.49,238Z"/></g></g></svg>