<svg id="Capa_1" data-name="Capa 1" xmlns="http://www.w3.org/2000/svg" viewBox="0 0 17 14"><defs><style>.cls-1{fill:#fff;}</style></defs><title>men-enviar</title><path class="cls-1" d="M6.52,10.72v2.82a.46.46,0,0,0,.32.44L7,14a.47.47,0,0,0,.37-.19L9,11.57Zm0,0"/><path class="cls-1" d="M15.61.08a.47.47,0,0,0-.47,0L1.44,7.2a.45.45,0,0,0-.24.44.44.44,0,0,0,.3.4l3.81,1.3,8.11-6.93L7.15,10l6.38,2.18a.32.32,0,0,0,.14,0,.48.48,0,0,0,.24-.06.45.45,0,0,0,.22-.33L15.8.52a.47.47,0,0,0-.19-.44Zm0,0"/></svg>