<svg id="Capa_1" data-name="Capa 1" xmlns="http://www.w3.org/2000/svg" viewBox="0 0 17 14"><defs><style>.cls-1{fill:#36c;}</style></defs><title>men-notificacion-electronica</title><path class="cls-1" d="M2.84,14A1.44,1.44,0,0,1,1.4,12.57V5.69A1.44,1.44,0,0,1,2.84,4.25H5.35l.05,0a4.4,4.4,0,0,1,6.44,0l.05,0h2.27A1.45,1.45,0,0,1,15.6,5.69v6.88A1.44,1.44,0,0,1,14.16,14Zm-.78-1.44a.78.78,0,0,0,.78.78H14.16a.77.77,0,0,0,.78-.77V5.92L13,7v2.1l.61,1.8a.34.34,0,0,1-.13.38.41.41,0,0,1-.19.05H9.92l0,.11a1.32,1.32,0,0,1-2.56,0l0-.11H3.91a.32.32,0,0,1-.27-.14.3.3,0,0,1,0-.29l.61-1.8v-2L4.13,7,2.06,5.88Zm6.09-1a.65.65,0,0,0,.47.2.63.63,0,0,0,.47-.2l.26-.26H7.89ZM4.84,9.19v0l-.48,1.43h8.54l-.48-1.43a0,0,0,0,0,0,0l0-.12H4.88ZM8.61,3.46A3.76,3.76,0,0,0,4.86,7.21v1.2h7.5V7.21A3.75,3.75,0,0,0,8.61,3.46ZM2.83,4.94a.8.8,0,0,0-.45.14l-.2.14L4.29,6.38l0-.19a4.31,4.31,0,0,1,.4-1l.12-.22Zm9.68.22a4.29,4.29,0,0,1,.36.92l.05.18,1.89-1-.2-.14a.8.8,0,0,0-.45-.14H12.39ZM6.23,2.3A.33.33,0,0,1,6,2.2l-.65-.65a.33.33,0,1,1,.46-.46l.65.65a.33.33,0,0,1-.23.56Zm4.54,0a.33.33,0,0,1-.23-.56l.65-.65a.33.33,0,1,1,.46.46L11,2.2A.33.33,0,0,1,10.77,2.3ZM8.5,1.57H8.45a.35.35,0,0,1-.28-.33V.34A.35.35,0,0,1,8.45,0H8.5a.33.33,0,0,1,.33.33v.92A.32.32,0,0,1,8.5,1.57Z"/></svg>